<?xml version="1.0" encoding="UTF-8"?>
<svg width="360px" height="65px" viewBox="0 0 360 65" version="1.1" xmlns="http://www.w3.org/2000/svg" xmlns:xlink="http://www.w3.org/1999/xlink">
    <title>light-mode-signature</title>
    <g id="light-mode-signature" stroke="none" stroke-width="1" fill="none" fill-rule="evenodd">
        <g id="Group" fill="#000000" fill-rule="nonzero">
            <g id="Parker-Brademann">
                <path d="M22.8,8.016 C22.8,11.12 21.472,13.536 18.816,15.264 C17.152,16.352 15.04,16.896 12.48,16.896 C11.392,16.896 10.16,16.784 8.784,16.56 L8.784,30.192 C8.784,30.928 8.816,31.392 8.88,31.584 C9.04,32.032 9.392,32.304 9.936,32.4 C10.864,32.528 11.76,32.592 12.624,32.592 C12.976,32.592 13.152,32.704 13.152,32.928 C13.152,33.248 12.928,33.408 12.48,33.408 C12.288,33.408 12.128,33.392 12,33.36 C10.24,33.392 6.928,33.408 2.064,33.408 L1.44,33.408 C0.48,33.408 1.42108547e-14,33.248 1.42108547e-14,32.928 C1.42108547e-14,32.704 0.336,32.592 1.008,32.592 C2.512,32.592 3.376,32.448 3.6,32.16 C3.856,32.032 4,31.712 4.032,31.2 L4.032,2.88 C4.032,1.888 3.76,1.28 3.216,1.056 C2.896,0.928 2.336,0.864 1.536,0.864 L1.056,0.864 C0.96,0.896 0.848,0.912 0.72,0.912 C0.24,0.912 1.42108547e-14,0.768 1.42108547e-14,0.48 C1.42108547e-14,0.16 0.448,0 1.344,0 L11.904,0 C15.552,0 18.224,0.64 19.92,1.92 C21.84,3.36 22.8,5.392 22.8,8.016 Z M17.76,8.112 C17.76,3.312 15.744,0.912 11.712,0.912 C10.368,0.912 9.488,1.136 9.072,1.584 C8.88,1.776 8.784,2.272 8.784,3.072 L8.784,15.84 C9.04,15.872 9.328,15.888 9.648,15.888 C11.76,15.888 13.552,15.424 15.024,14.496 C16.848,13.344 17.76,11.216 17.76,8.112 Z" id="Shape"></path>
                <path d="M46.5732766,33.12 C46.5732766,33.312 46.2532766,33.408 45.6132766,33.408 L45.2772766,33.408 L42.3012766,33.312 L40.9572766,33.312 C40.4132766,33.312 39.6612766,33.328 38.7012766,33.36 L37.2612766,33.408 L36.3972766,33.456 L36.1572766,33.456 C35.5812766,33.456 35.2932766,33.328 35.2932766,33.072 C35.2932766,32.816 35.8692766,32.672 37.0212766,32.64 C38.3972766,32.608 39.0852766,32.448 39.0852766,32.16 C39.0852766,32.096 38.9892766,31.792 38.7972766,31.248 C38.7332766,30.992 38.3652766,29.92 37.6932766,28.032 L37.1172766,26.4 L30.2532766,26.4 C28.9412766,29.696 28.2852766,31.6 28.2852766,32.112 C28.2852766,32.4 28.4772766,32.56 28.8612766,32.592 L29.4852766,32.64 L30.2052766,32.64 L30.6372766,32.688 C31.0212766,32.688 31.2132766,32.8 31.2132766,33.024 C31.2132766,33.28 30.8772766,33.408 30.2052766,33.408 C30.1092766,33.408 29.5412766,33.384 28.5012766,33.336 C27.4612766,33.288 26.5412766,33.264 25.7412766,33.264 L25.3092766,33.264 L24.8772766,33.312 L24.3492766,33.36 L24.2532766,33.36 C23.7412766,33.36 23.4852766,33.264 23.4852766,33.072 C23.4852766,32.848 23.6932766,32.72 24.1092766,32.688 C24.6852766,32.656 25.0692766,32.624 25.2612766,32.592 C25.8052766,32.496 26.1572766,32.352 26.3172766,32.16 C26.5092766,32.064 27.2932766,30.24 28.6692766,26.688 C29.2132766,25.248 29.7412766,23.904 30.2532766,22.656 C30.4452766,22.208 30.5732766,21.872 30.6372766,21.648 C30.7012766,21.424 30.8292766,21.088 31.0212766,20.64 C31.5652766,19.328 32.3332766,17.344 33.3252766,14.688 L34.0452766,12.672 L34.3812766,11.808 C34.5732766,11.328 34.7652766,11.088 34.9572766,11.088 C35.0532766,11.088 35.2612766,11.536 35.5812766,12.432 C36.5412766,14.768 39.0212766,20.944 43.0212766,30.96 C43.4052766,31.952 43.7732766,32.48 44.1252766,32.544 C44.2212766,32.576 44.7332766,32.624 45.6612766,32.688 C46.2692766,32.72 46.5732766,32.864 46.5732766,33.12 Z M36.8292766,25.536 L33.7092766,17.328 C32.9412766,19.248 31.8852766,21.984 30.5412766,25.536 L36.8292766,25.536 Z" id="Shape"></path>
                <path d="M67.3705532,32.208 C67.3705532,33.232 66.4745532,33.744 64.6825532,33.744 C62.9545532,33.744 61.5465532,33.088 60.4585532,31.776 C59.9785532,31.2 59.6585532,30.624 59.4985532,30.048 C59.3385532,29.472 59.1465532,28.112 58.9225532,25.968 C58.7625532,24.592 58.3225532,23.632 57.6025532,23.088 C56.8825532,22.544 55.6425532,22.24 53.8825532,22.176 L53.8825532,32.064 C53.7865532,32.512 54.6025532,32.736 56.3305532,32.736 C56.6825532,32.736 56.8585532,32.848 56.8585532,33.072 C56.8585532,33.296 56.6345532,33.408 56.1865532,33.408 C55.8345532,33.408 55.4985532,33.392 55.1785532,33.36 L53.4985532,33.36 C52.7945532,33.36 51.9465532,33.376 50.9545532,33.408 C49.9945532,33.408 49.4665532,33.408 49.3705532,33.408 L48.4585532,33.408 C47.5625532,33.408 47.1145532,33.296 47.1145532,33.072 C47.1145532,32.816 47.2745532,32.688 47.5945532,32.688 C47.6905532,32.688 47.8505532,32.704 48.0745532,32.736 L48.2665532,32.736 C49.3545532,32.736 49.8985532,32.512 49.8985532,32.064 L49.8985532,13.104 C49.8985532,12.752 49.8105532,12.52 49.6345532,12.408 C49.4585532,12.296 48.9945532,12.24 48.2425532,12.24 C47.4905532,12.24 47.1145532,12.112 47.1145532,11.856 C47.1145532,11.632 47.3385532,11.52 47.7865532,11.52 L48.1225532,11.52 C48.6345532,11.584 50.1545532,11.616 52.6825532,11.616 C53.7385532,11.616 54.6025532,11.6 55.2745532,11.568 C55.9465532,11.536 56.4745532,11.52 56.8585532,11.52 C59.0025532,11.52 60.7225532,11.96 62.0185532,12.84 C63.3145532,13.72 63.9625532,14.88 63.9625532,16.32 C63.9625532,17.888 63.2745532,19.16 61.8985532,20.136 C60.5225532,21.112 58.5865532,21.68 56.0905532,21.84 C58.7785532,22.128 60.6265532,22.832 61.6345532,23.952 C62.6425532,25.072 63.2905532,27.088 63.5785532,30 C63.7705532,31.984 64.3625532,32.976 65.3545532,32.976 C65.5145532,32.976 65.5945532,32.928 65.5945532,32.832 C65.5945532,32.8 65.5545532,32.696 65.4745532,32.52 C65.3945532,32.344 65.3545532,32.208 65.3545532,32.112 C65.3545532,31.504 65.6745532,31.2 66.3145532,31.2 C67.0185532,31.2 67.3705532,31.536 67.3705532,32.208 Z M59.7865532,16.608 C59.7865532,13.728 58.3625532,12.288 55.5145532,12.288 C54.7785532,12.288 54.3225532,12.36 54.1465532,12.504 C53.9705532,12.648 53.8825532,12.992 53.8825532,13.536 L53.8825532,21.408 C57.8185532,21.408 59.7865532,19.808 59.7865532,16.608 Z" id="Shape"></path>
                <path d="M92.3918298,32.928 C92.3918298,33.12 92.3358298,33.232 92.2238298,33.264 C92.1118298,33.296 91.7358298,33.312 91.0958298,33.312 L90.1358298,33.312 L83.0798298,33.36 C82.5038298,33.36 82.2158298,33.264 82.2158298,33.072 C82.2158298,32.848 82.7438298,32.688 83.7998298,32.592 C84.4398298,32.528 84.7598298,32.4 84.7598298,32.208 C84.7598298,32.08 84.3918298,31.616 83.6558298,30.816 C82.9838298,30.112 80.4078298,27.312 75.9278298,22.416 L75.9278298,31.056 C75.9278298,31.824 76.0238298,32.272 76.2158298,32.4 C76.4078298,32.528 77.0318298,32.608 78.0878298,32.64 C78.4398298,32.64 78.6158298,32.768 78.6158298,33.024 C78.6158298,33.248 78.3758298,33.36 77.8958298,33.36 L77.5598298,33.36 C77.2398298,33.296 75.7038298,33.264 72.9518298,33.264 C71.7358298,33.264 70.8398298,33.296 70.2638298,33.36 L69.9278298,33.36 C69.4798298,33.36 69.2558298,33.232 69.2558298,32.976 C69.2558298,32.688 69.7198298,32.56 70.6478298,32.592 C71.2878298,32.592 71.6558298,32.496 71.7518298,32.304 C71.8478298,32.112 71.8958298,31.424 71.8958298,30.24 L71.8958298,14.16 C71.8958298,13.264 71.8798298,12.768 71.8478298,12.672 C71.7518298,12.416 71.3038298,12.288 70.5038298,12.288 C69.7038298,12.288 69.3038298,12.144 69.3038298,11.856 C69.3038298,11.632 69.5278298,11.52 69.9758298,11.52 C70.0398298,11.52 70.1998298,11.52 70.4558298,11.52 C70.7438298,11.552 70.9838298,11.568 71.1758298,11.568 L74.2958298,11.616 C74.4558298,11.616 75.1278298,11.6 76.3118298,11.568 L77.9438298,11.52 C78.3918298,11.52 78.6158298,11.648 78.6158298,11.904 C78.6158298,12.128 78.0878298,12.256 77.0318298,12.288 C76.5198298,12.32 76.2078298,12.376 76.0958298,12.456 C75.9838298,12.536 75.9278298,12.8 75.9278298,13.248 L75.9278298,21.168 C81.9118298,15.632 84.9038298,12.752 84.9038298,12.528 C84.9038298,12.368 84.2478298,12.288 82.9358298,12.288 C82.5518298,12.288 82.3598298,12.16 82.3598298,11.904 C82.3598298,11.712 82.4718298,11.6 82.6958298,11.568 C82.9198298,11.536 83.7198298,11.52 85.0958298,11.52 C87.5598298,11.52 88.9998298,11.536 89.4158298,11.568 C89.8318298,11.6 90.0398298,11.728 90.0398298,11.952 C90.0398298,12.272 89.7518298,12.416 89.1758298,12.384 L87.8318298,12.336 C87.3838298,12.304 86.8398298,12.592 86.1998298,13.2 C85.7838298,13.552 85.1438298,14.128 84.2798298,14.928 C82.9998298,16.144 81.0478298,17.952 78.4238298,20.352 C78.8398298,20.8 80.3598298,22.352 82.9838298,25.008 L88.6478298,30.72 C89.5438298,31.616 90.1358298,32.152 90.4238298,32.328 C90.7118298,32.504 91.1758298,32.592 91.8158298,32.592 C92.1998298,32.592 92.3918298,32.704 92.3918298,32.928 Z" id="Path"></path>
                <path d="M111.797106,28.176 C111.797106,28.208 111.781106,28.408 111.749106,28.776 C111.717106,29.144 111.701106,29.472 111.701106,29.76 L111.653106,32.496 C111.653106,32.816 111.669106,33.168 111.701106,33.552 L103.733106,33.408 L94.6131064,33.456 C93.9411064,33.456 93.6051064,33.344 93.6051064,33.12 C93.6051064,32.864 93.7971064,32.736 94.1811064,32.736 C95.2051064,32.736 95.8051064,32.664 95.9811064,32.52 C96.1571064,32.376 96.2451064,31.856 96.2451064,30.96 L96.2451064,14.448 C96.2451064,13.136 96.1331064,12.44 95.9091064,12.36 C95.6851064,12.28 95.1251064,12.24 94.2291064,12.24 C93.8451064,12.24 93.6531064,12.128 93.6531064,11.904 C93.6531064,11.648 93.8611064,11.52 94.2771064,11.52 L95.4291064,11.52 C95.7491064,11.52 96.0691064,11.52 96.3891064,11.52 C96.7411064,11.552 96.9171064,11.568 96.9171064,11.568 L98.1171064,11.568 C98.2771064,11.568 99.0771064,11.552 100.517106,11.52 C101.989106,11.52 103.749106,11.52 105.797106,11.52 L108.629106,11.52 C109.461106,11.52 110.149106,11.488 110.693106,11.424 L110.693106,11.76 L110.741106,12.48 C110.805106,12.96 110.933106,14.4 111.125106,16.8 C111.157106,16.96 111.173106,17.152 111.173106,17.376 C111.173106,17.792 111.061106,18 110.837106,18 C110.549106,18 110.341106,17.68 110.213106,17.04 C109.765106,14.608 108.917106,13.184 107.669106,12.768 C106.965106,12.544 105.301106,12.432 102.677106,12.432 L100.229106,12.432 L100.229106,21.408 L101.381106,21.408 C103.429106,21.408 104.693106,21.24 105.173106,20.904 C105.653106,20.568 105.973106,19.648 106.133106,18.144 C106.229106,17.248 106.421106,16.8 106.709106,16.8 C107.029106,16.8 107.189106,17.12 107.189106,17.76 C107.189106,18.144 107.165106,18.736 107.117106,19.536 C107.069106,20.336 107.045106,20.944 107.045106,21.36 C107.045106,23.44 107.093106,24.864 107.189106,25.632 C107.221106,25.888 107.237106,26.096 107.237106,26.256 C107.237106,26.768 107.077106,27.024 106.757106,27.024 C106.469106,27.024 106.277106,26.624 106.181106,25.824 C105.989106,24.096 105.669106,23.064 105.221106,22.728 C104.773106,22.392 103.509106,22.224 101.429106,22.224 L100.229106,22.224 L100.229106,32.592 C104.933106,32.56 107.701106,32.432 108.533106,32.208 C109.813106,31.856 110.565106,30.32 110.789106,27.6 C110.821106,27.12 110.997106,26.88 111.317106,26.88 C111.637106,26.88 111.797106,27.312 111.797106,28.176 Z" id="Path"></path>
                <path d="M134.754383,32.208 C134.754383,33.232 133.858383,33.744 132.066383,33.744 C130.338383,33.744 128.930383,33.088 127.842383,31.776 C127.362383,31.2 127.042383,30.624 126.882383,30.048 C126.722383,29.472 126.530383,28.112 126.306383,25.968 C126.146383,24.592 125.706383,23.632 124.986383,23.088 C124.266383,22.544 123.026383,22.24 121.266383,22.176 L121.266383,32.064 C121.170383,32.512 121.986383,32.736 123.714383,32.736 C124.066383,32.736 124.242383,32.848 124.242383,33.072 C124.242383,33.296 124.018383,33.408 123.570383,33.408 C123.218383,33.408 122.882383,33.392 122.562383,33.36 L120.882383,33.36 C120.178383,33.36 119.330383,33.376 118.338383,33.408 C117.378383,33.408 116.850383,33.408 116.754383,33.408 L115.842383,33.408 C114.946383,33.408 114.498383,33.296 114.498383,33.072 C114.498383,32.816 114.658383,32.688 114.978383,32.688 C115.074383,32.688 115.234383,32.704 115.458383,32.736 L115.650383,32.736 C116.738383,32.736 117.282383,32.512 117.282383,32.064 L117.282383,13.104 C117.282383,12.752 117.194383,12.52 117.018383,12.408 C116.842383,12.296 116.378383,12.24 115.626383,12.24 C114.874383,12.24 114.498383,12.112 114.498383,11.856 C114.498383,11.632 114.722383,11.52 115.170383,11.52 L115.506383,11.52 C116.018383,11.584 117.538383,11.616 120.066383,11.616 C121.122383,11.616 121.986383,11.6 122.658383,11.568 C123.330383,11.536 123.858383,11.52 124.242383,11.52 C126.386383,11.52 128.106383,11.96 129.402383,12.84 C130.698383,13.72 131.346383,14.88 131.346383,16.32 C131.346383,17.888 130.658383,19.16 129.282383,20.136 C127.906383,21.112 125.970383,21.68 123.474383,21.84 C126.162383,22.128 128.010383,22.832 129.018383,23.952 C130.026383,25.072 130.674383,27.088 130.962383,30 C131.154383,31.984 131.746383,32.976 132.738383,32.976 C132.898383,32.976 132.978383,32.928 132.978383,32.832 C132.978383,32.8 132.938383,32.696 132.858383,32.52 C132.778383,32.344 132.738383,32.208 132.738383,32.112 C132.738383,31.504 133.058383,31.2 133.698383,31.2 C134.402383,31.2 134.754383,31.536 134.754383,32.208 Z M127.170383,16.608 C127.170383,13.728 125.746383,12.288 122.898383,12.288 C122.162383,12.288 121.706383,12.36 121.530383,12.504 C121.354383,12.648 121.266383,12.992 121.266383,13.536 L121.266383,21.408 C125.202383,21.408 127.170383,19.808 127.170383,16.608 Z" id="Shape"></path>
                <path d="M170.636936,24.624 C170.636936,27.888 169.148936,30.304 166.172936,31.872 C164.732936,32.64 162.668936,33.12 159.980936,33.312 C159.244936,33.344 157.068936,33.36 153.452936,33.36 L147.596936,33.36 C147.052936,33.36 146.780936,33.216 146.780936,32.928 C146.780936,32.64 147.276936,32.496 148.268936,32.496 C149.420936,32.496 150.100936,32.376 150.308936,32.136 C150.516936,31.896 150.620936,31.168 150.620936,29.952 L150.620936,3.984 C150.620936,2.576 150.556936,1.76 150.428936,1.536 C150.204936,1.152 149.388936,0.944 147.980936,0.912 C147.116936,0.912 146.684936,0.752 146.684936,0.432 C146.684936,0.144 147.084936,0 147.884936,0 C147.916936,0 148.108936,0 148.460936,0 C148.812936,0.032 149.132936,0.048 149.420936,0.048 L158.780936,0.144 C162.236936,0.176 164.812936,0.752 166.508936,1.872 C168.492936,3.184 169.484936,5.088 169.484936,7.584 C169.484936,9.76 168.668936,11.544 167.036936,12.936 C165.404936,14.328 163.116936,15.2 160.172936,15.552 L160.172936,15.84 C163.084936,16.032 165.356936,16.64 166.988936,17.664 C169.420936,19.2 170.636936,21.52 170.636936,24.624 Z M164.204936,8.064 C164.204936,4.992 163.500936,2.944 162.092936,1.92 C161.356936,1.376 159.964936,1.104 157.916936,1.104 C157.372936,1.104 156.524936,1.152 155.372936,1.248 L155.372936,15.168 L155.804936,15.168 L158.444936,15.072 C160.268936,15.008 161.684936,14.36 162.692936,13.128 C163.700936,11.896 164.204936,10.208 164.204936,8.064 Z M165.596936,24.096 C165.596936,20.064 163.964936,17.568 160.700936,16.608 C159.740936,16.32 157.964936,16.176 155.372936,16.176 L155.372936,30.48 C155.372936,31.408 155.468936,31.936 155.660936,32.064 C155.980936,32.288 156.876936,32.4 158.348936,32.4 C160.556936,32.4 162.316936,31.696 163.628936,30.288 C164.940936,28.88 165.596936,26.816 165.596936,24.096 Z" id="Shape"></path>
                <path d="M195.130213,32.208 C195.130213,33.232 194.234213,33.744 192.442213,33.744 C190.714213,33.744 189.306213,33.088 188.218213,31.776 C187.738213,31.2 187.418213,30.624 187.258213,30.048 C187.098213,29.472 186.906213,28.112 186.682213,25.968 C186.522213,24.592 186.082213,23.632 185.362213,23.088 C184.642213,22.544 183.402213,22.24 181.642213,22.176 L181.642213,32.064 C181.546213,32.512 182.362213,32.736 184.090213,32.736 C184.442213,32.736 184.618213,32.848 184.618213,33.072 C184.618213,33.296 184.394213,33.408 183.946213,33.408 C183.594213,33.408 183.258213,33.392 182.938213,33.36 L181.258213,33.36 C180.554213,33.36 179.706213,33.376 178.714213,33.408 C177.754213,33.408 177.226213,33.408 177.130213,33.408 L176.218213,33.408 C175.322213,33.408 174.874213,33.296 174.874213,33.072 C174.874213,32.816 175.034213,32.688 175.354213,32.688 C175.450213,32.688 175.610213,32.704 175.834213,32.736 L176.026213,32.736 C177.114213,32.736 177.658213,32.512 177.658213,32.064 L177.658213,13.104 C177.658213,12.752 177.570213,12.52 177.394213,12.408 C177.218213,12.296 176.754213,12.24 176.002213,12.24 C175.250213,12.24 174.874213,12.112 174.874213,11.856 C174.874213,11.632 175.098213,11.52 175.546213,11.52 L175.882213,11.52 C176.394213,11.584 177.914213,11.616 180.442213,11.616 C181.498213,11.616 182.362213,11.6 183.034213,11.568 C183.706213,11.536 184.234213,11.52 184.618213,11.52 C186.762213,11.52 188.482213,11.96 189.778213,12.84 C191.074213,13.72 191.722213,14.88 191.722213,16.32 C191.722213,17.888 191.034213,19.16 189.658213,20.136 C188.282213,21.112 186.346213,21.68 183.850213,21.84 C186.538213,22.128 188.386213,22.832 189.394213,23.952 C190.402213,25.072 191.050213,27.088 191.338213,30 C191.530213,31.984 192.122213,32.976 193.114213,32.976 C193.274213,32.976 193.354213,32.928 193.354213,32.832 C193.354213,32.8 193.314213,32.696 193.234213,32.52 C193.154213,32.344 193.114213,32.208 193.114213,32.112 C193.114213,31.504 193.434213,31.2 194.074213,31.2 C194.778213,31.2 195.130213,31.536 195.130213,32.208 Z M187.546213,16.608 C187.546213,13.728 186.122213,12.288 183.274213,12.288 C182.538213,12.288 182.082213,12.36 181.906213,12.504 C181.730213,12.648 181.642213,12.992 181.642213,13.536 L181.642213,21.408 C185.578213,21.408 187.546213,19.808 187.546213,16.608 Z" id="Shape"></path>
                <path d="M218.375489,33.12 C218.375489,33.312 218.055489,33.408 217.415489,33.408 L217.079489,33.408 L214.103489,33.312 L212.759489,33.312 C212.215489,33.312 211.463489,33.328 210.503489,33.36 L209.063489,33.408 L208.199489,33.456 L207.959489,33.456 C207.383489,33.456 207.095489,33.328 207.095489,33.072 C207.095489,32.816 207.671489,32.672 208.823489,32.64 C210.199489,32.608 210.887489,32.448 210.887489,32.16 C210.887489,32.096 210.791489,31.792 210.599489,31.248 C210.535489,30.992 210.167489,29.92 209.495489,28.032 L208.919489,26.4 L202.055489,26.4 C200.743489,29.696 200.087489,31.6 200.087489,32.112 C200.087489,32.4 200.279489,32.56 200.663489,32.592 L201.287489,32.64 L202.007489,32.64 L202.439489,32.688 C202.823489,32.688 203.015489,32.8 203.015489,33.024 C203.015489,33.28 202.679489,33.408 202.007489,33.408 C201.911489,33.408 201.343489,33.384 200.303489,33.336 C199.263489,33.288 198.343489,33.264 197.543489,33.264 L197.111489,33.264 L196.679489,33.312 L196.151489,33.36 L196.055489,33.36 C195.543489,33.36 195.287489,33.264 195.287489,33.072 C195.287489,32.848 195.495489,32.72 195.911489,32.688 C196.487489,32.656 196.871489,32.624 197.063489,32.592 C197.607489,32.496 197.959489,32.352 198.119489,32.16 C198.311489,32.064 199.095489,30.24 200.471489,26.688 C201.015489,25.248 201.543489,23.904 202.055489,22.656 C202.247489,22.208 202.375489,21.872 202.439489,21.648 C202.503489,21.424 202.631489,21.088 202.823489,20.64 C203.367489,19.328 204.135489,17.344 205.127489,14.688 L205.847489,12.672 L206.183489,11.808 C206.375489,11.328 206.567489,11.088 206.759489,11.088 C206.855489,11.088 207.063489,11.536 207.383489,12.432 C208.343489,14.768 210.823489,20.944 214.823489,30.96 C215.207489,31.952 215.575489,32.48 215.927489,32.544 C216.023489,32.576 216.535489,32.624 217.463489,32.688 C218.071489,32.72 218.375489,32.864 218.375489,33.12 Z M208.631489,25.536 L205.511489,17.328 C204.743489,19.248 203.687489,21.984 202.343489,25.536 L208.631489,25.536 Z" id="Shape"></path>
                <path d="M241.332766,22.464 C241.332766,26.208 239.892766,29.104 237.012766,31.152 C234.932766,32.624 232.260766,33.36 228.996766,33.36 C229.092766,33.36 228.716766,33.344 227.868766,33.312 C227.020766,33.28 225.716766,33.264 223.956766,33.264 L222.900766,33.264 C222.964766,33.264 222.676766,33.28 222.036766,33.312 C221.396766,33.344 220.756766,33.36 220.116766,33.36 L219.684766,33.36 C219.140766,33.36 218.868766,33.216 218.868766,32.928 C218.868766,32.672 219.060766,32.56 219.444766,32.592 L220.548766,32.64 C221.188766,32.672 221.540766,32.496 221.604766,32.112 C221.668766,31.984 221.700766,31.424 221.700766,30.432 L221.700766,15.024 C221.700766,13.488 221.668766,12.672 221.604766,12.576 C221.444766,12.384 220.884766,12.272 219.924766,12.24 C219.348766,12.24 219.060766,12.128 219.060766,11.904 C219.060766,11.648 219.348766,11.52 219.924766,11.52 C219.860766,11.52 220.004766,11.52 220.356766,11.52 C220.740766,11.552 221.316766,11.568 222.084766,11.568 L225.300766,11.568 C229.492766,11.568 232.468766,11.824 234.228766,12.336 C236.340766,12.944 238.052766,14.184 239.364766,16.056 C240.676766,17.928 241.332766,20.064 241.332766,22.464 Z M236.772766,22.32 C236.772766,15.696 234.084766,12.384 228.708766,12.384 C227.076766,12.384 226.172766,12.472 225.996766,12.648 C225.820766,12.824 225.732766,13.408 225.732766,14.4 L225.732766,31.344 C225.732766,31.92 225.868766,32.272 226.140766,32.4 C226.412766,32.528 227.108766,32.592 228.228766,32.592 C233.924766,32.592 236.772766,29.168 236.772766,22.32 Z" id="Shape"></path>
                <path d="M262.994043,28.176 C262.994043,28.208 262.978043,28.408 262.946043,28.776 C262.914043,29.144 262.898043,29.472 262.898043,29.76 L262.850043,32.496 C262.850043,32.816 262.866043,33.168 262.898043,33.552 L254.930043,33.408 L245.810043,33.456 C245.138043,33.456 244.802043,33.344 244.802043,33.12 C244.802043,32.864 244.994043,32.736 245.378043,32.736 C246.402043,32.736 247.002043,32.664 247.178043,32.52 C247.354043,32.376 247.442043,31.856 247.442043,30.96 L247.442043,14.448 C247.442043,13.136 247.330043,12.44 247.106043,12.36 C246.882043,12.28 246.322043,12.24 245.426043,12.24 C245.042043,12.24 244.850043,12.128 244.850043,11.904 C244.850043,11.648 245.058043,11.52 245.474043,11.52 L246.626043,11.52 C246.946043,11.52 247.266043,11.52 247.586043,11.52 C247.938043,11.552 248.114043,11.568 248.114043,11.568 L249.314043,11.568 C249.474043,11.568 250.274043,11.552 251.714043,11.52 C253.186043,11.52 254.946043,11.52 256.994043,11.52 L259.826043,11.52 C260.658043,11.52 261.346043,11.488 261.890043,11.424 L261.890043,11.76 L261.938043,12.48 C262.002043,12.96 262.130043,14.4 262.322043,16.8 C262.354043,16.96 262.370043,17.152 262.370043,17.376 C262.370043,17.792 262.258043,18 262.034043,18 C261.746043,18 261.538043,17.68 261.410043,17.04 C260.962043,14.608 260.114043,13.184 258.866043,12.768 C258.162043,12.544 256.498043,12.432 253.874043,12.432 L251.426043,12.432 L251.426043,21.408 L252.578043,21.408 C254.626043,21.408 255.890043,21.24 256.370043,20.904 C256.850043,20.568 257.170043,19.648 257.330043,18.144 C257.426043,17.248 257.618043,16.8 257.906043,16.8 C258.226043,16.8 258.386043,17.12 258.386043,17.76 C258.386043,18.144 258.362043,18.736 258.314043,19.536 C258.266043,20.336 258.242043,20.944 258.242043,21.36 C258.242043,23.44 258.290043,24.864 258.386043,25.632 C258.418043,25.888 258.434043,26.096 258.434043,26.256 C258.434043,26.768 258.274043,27.024 257.954043,27.024 C257.666043,27.024 257.474043,26.624 257.378043,25.824 C257.186043,24.096 256.866043,23.064 256.418043,22.728 C255.970043,22.392 254.706043,22.224 252.626043,22.224 L251.426043,22.224 L251.426043,32.592 C256.130043,32.56 258.898043,32.432 259.730043,32.208 C261.010043,31.856 261.762043,30.32 261.986043,27.6 C262.018043,27.12 262.194043,26.88 262.514043,26.88 C262.834043,26.88 262.994043,27.312 262.994043,28.176 Z" id="Path"></path>
                <path d="M290.703319,33.024 C290.703319,33.28 290.415319,33.408 289.839319,33.408 C289.967319,33.408 289.807319,33.408 289.359319,33.408 C288.911319,33.376 288.191319,33.36 287.199319,33.36 L285.519319,33.36 C285.039319,33.36 284.415319,33.376 283.647319,33.408 C282.879319,33.408 282.175319,33.408 281.535319,33.408 L281.295319,33.408 C280.719319,33.408 280.431319,33.28 280.431319,33.024 C280.431319,32.864 280.503319,32.768 280.647319,32.736 C280.791319,32.704 281.327319,32.672 282.255319,32.64 C282.927319,32.608 283.319319,32.512 283.431319,32.352 C283.543319,32.192 283.599319,31.6 283.599319,30.576 L283.599319,15.168 C283.023319,16.768 282.095319,19.408 280.815319,23.088 C280.079319,25.296 279.151319,28.144 278.031319,31.632 C277.711319,32.624 277.455319,33.12 277.263319,33.12 C277.007319,33.12 276.735319,32.688 276.447319,31.824 C275.711319,29.616 273.551319,24.144 269.967319,15.408 L269.967319,31.824 C269.967319,32.24 270.127319,32.496 270.447319,32.592 C270.895319,32.624 271.471319,32.64 272.175319,32.64 C272.591319,32.64 272.799319,32.752 272.799319,32.976 C272.799319,33.232 272.479319,33.36 271.839319,33.36 L271.167319,33.36 C270.879319,33.328 270.543319,33.312 270.159319,33.312 L267.423319,33.36 C267.135319,33.392 266.783319,33.408 266.367319,33.408 C265.887319,33.408 265.647319,33.28 265.647319,33.024 C265.647319,32.8 266.159319,32.672 267.183319,32.64 C267.887319,32.608 268.295319,32.52 268.407319,32.376 C268.519319,32.232 268.575319,31.712 268.575319,30.816 L268.575319,14.544 C268.575319,13.456 268.471319,12.816 268.263319,12.624 C268.055319,12.432 267.359319,12.32 266.175319,12.288 C265.759319,12.288 265.551319,12.16 265.551319,11.904 C265.551319,11.712 265.823319,11.6 266.367319,11.568 C266.911319,11.536 268.831319,11.52 272.127319,11.52 L272.319319,12.048 C272.479319,12.4 272.687319,12.896 272.943319,13.536 L274.095319,16.416 C274.415319,17.216 274.959319,18.56 275.727319,20.448 L278.271319,26.736 C278.751319,25.2 279.119319,24.064 279.375319,23.328 L283.503319,11.52 L287.151319,11.52 L289.263319,11.472 C290.095319,11.44 290.511319,11.584 290.511319,11.904 C290.511319,12.16 290.207319,12.304 289.599319,12.336 C288.767319,12.368 288.271319,12.4 288.111319,12.432 C287.663319,12.592 287.439319,12.944 287.439319,13.488 L287.439319,30.432 C287.439319,31.712 287.551319,32.4 287.775319,32.496 C287.999319,32.592 288.735319,32.64 289.983319,32.64 C290.463319,32.64 290.703319,32.768 290.703319,33.024 Z" id="Path"></path>
                <path d="M314.668596,33.12 C314.668596,33.312 314.348596,33.408 313.708596,33.408 L313.372596,33.408 L310.396596,33.312 L309.052596,33.312 C308.508596,33.312 307.756596,33.328 306.796596,33.36 L305.356596,33.408 L304.492596,33.456 L304.252596,33.456 C303.676596,33.456 303.388596,33.328 303.388596,33.072 C303.388596,32.816 303.964596,32.672 305.116596,32.64 C306.492596,32.608 307.180596,32.448 307.180596,32.16 C307.180596,32.096 307.084596,31.792 306.892596,31.248 C306.828596,30.992 306.460596,29.92 305.788596,28.032 L305.212596,26.4 L298.348596,26.4 C297.036596,29.696 296.380596,31.6 296.380596,32.112 C296.380596,32.4 296.572596,32.56 296.956596,32.592 L297.580596,32.64 L298.300596,32.64 L298.732596,32.688 C299.116596,32.688 299.308596,32.8 299.308596,33.024 C299.308596,33.28 298.972596,33.408 298.300596,33.408 C298.204596,33.408 297.636596,33.384 296.596596,33.336 C295.556596,33.288 294.636596,33.264 293.836596,33.264 L293.404596,33.264 L292.972596,33.312 L292.444596,33.36 L292.348596,33.36 C291.836596,33.36 291.580596,33.264 291.580596,33.072 C291.580596,32.848 291.788596,32.72 292.204596,32.688 C292.780596,32.656 293.164596,32.624 293.356596,32.592 C293.900596,32.496 294.252596,32.352 294.412596,32.16 C294.604596,32.064 295.388596,30.24 296.764596,26.688 C297.308596,25.248 297.836596,23.904 298.348596,22.656 C298.540596,22.208 298.668596,21.872 298.732596,21.648 C298.796596,21.424 298.924596,21.088 299.116596,20.64 C299.660596,19.328 300.428596,17.344 301.420596,14.688 L302.140596,12.672 L302.476596,11.808 C302.668596,11.328 302.860596,11.088 303.052596,11.088 C303.148596,11.088 303.356596,11.536 303.676596,12.432 C304.636596,14.768 307.116596,20.944 311.116596,30.96 C311.500596,31.952 311.868596,32.48 312.220596,32.544 C312.316596,32.576 312.828596,32.624 313.756596,32.688 C314.364596,32.72 314.668596,32.864 314.668596,33.12 Z M304.924596,25.536 L301.804596,17.328 C301.036596,19.248 299.980596,21.984 298.636596,25.536 L304.924596,25.536 Z" id="Shape"></path>
                <path d="M336.329872,11.904 C336.329872,12.16 335.977872,12.288 335.273872,12.288 C335.177872,12.288 334.953872,12.272 334.601872,12.24 L334.073872,12.24 C333.785872,12.24 333.617872,12.304 333.569872,12.432 C333.521872,12.56 333.497872,12.992 333.497872,13.728 L333.497872,31.344 C333.497872,32.496 333.481872,33.168 333.449872,33.36 C333.417872,33.552 333.273872,33.648 333.017872,33.648 C332.665872,33.648 331.529872,32.32 329.609872,29.664 C329.385872,29.312 329.033872,28.832 328.553872,28.224 C328.489872,28.128 328.313872,27.888 328.025872,27.504 C326.425872,25.392 323.529872,21.424 319.337872,15.6 L319.337872,30.72 C319.337872,31.904 319.505872,32.528 319.841872,32.592 C320.177872,32.656 320.793872,32.688 321.689872,32.688 L321.881872,32.688 C322.265872,32.688 322.457872,32.8 322.457872,33.024 C322.457872,33.28 322.105872,33.408 321.401872,33.408 C321.273872,33.408 320.745872,33.376 319.817872,33.312 C319.337872,33.28 318.905872,33.264 318.521872,33.264 C318.201872,33.264 317.881872,33.28 317.561872,33.312 C316.953872,33.376 316.297872,33.408 315.593872,33.408 C315.081872,33.408 314.825872,33.28 314.825872,33.024 C314.825872,32.8 315.129872,32.688 315.737872,32.688 L316.169872,32.688 L316.793872,32.64 C317.561872,32.576 317.961872,32.432 317.993872,32.208 C318.025872,32.08 318.041872,31.616 318.041872,30.816 L318.041872,17.616 C318.041872,15.216 317.897872,13.776 317.609872,13.296 C317.225872,12.656 316.473872,12.336 315.353872,12.336 C314.553872,12.336 314.153872,12.192 314.153872,11.904 C314.153872,11.68 314.361872,11.568 314.777872,11.568 L314.969872,11.568 L317.609872,11.616 C317.737872,11.616 317.945872,11.616 318.233872,11.616 C318.553872,11.584 318.841872,11.568 319.097872,11.568 L320.873872,11.568 L332.201872,27.12 L332.201872,13.776 C332.201872,12.976 332.169872,12.512 332.105872,12.384 C332.041872,12.256 331.785872,12.192 331.337872,12.192 C330.921872,12.192 330.585872,12.208 330.329872,12.24 L330.041872,12.24 C329.433872,12.24 329.129872,12.112 329.129872,11.856 C329.129872,11.696 329.281872,11.6 329.585872,11.568 C329.889872,11.536 330.969872,11.52 332.825872,11.52 C334.585872,11.52 335.609872,11.536 335.897872,11.568 C336.185872,11.6 336.329872,11.712 336.329872,11.904 Z" id="Path"></path>
                <path d="M360.151149,11.904 C360.151149,12.16 359.799149,12.288 359.095149,12.288 C358.999149,12.288 358.775149,12.272 358.423149,12.24 L357.895149,12.24 C357.607149,12.24 357.439149,12.304 357.391149,12.432 C357.343149,12.56 357.319149,12.992 357.319149,13.728 L357.319149,31.344 C357.319149,32.496 357.303149,33.168 357.271149,33.36 C357.239149,33.552 357.095149,33.648 356.839149,33.648 C356.487149,33.648 355.351149,32.32 353.431149,29.664 C353.207149,29.312 352.855149,28.832 352.375149,28.224 C352.311149,28.128 352.135149,27.888 351.847149,27.504 C350.247149,25.392 347.351149,21.424 343.159149,15.6 L343.159149,30.72 C343.159149,31.904 343.327149,32.528 343.663149,32.592 C343.999149,32.656 344.615149,32.688 345.511149,32.688 L345.703149,32.688 C346.087149,32.688 346.279149,32.8 346.279149,33.024 C346.279149,33.28 345.927149,33.408 345.223149,33.408 C345.095149,33.408 344.567149,33.376 343.639149,33.312 C343.159149,33.28 342.727149,33.264 342.343149,33.264 C342.023149,33.264 341.703149,33.28 341.383149,33.312 C340.775149,33.376 340.119149,33.408 339.415149,33.408 C338.903149,33.408 338.647149,33.28 338.647149,33.024 C338.647149,32.8 338.951149,32.688 339.559149,32.688 L339.991149,32.688 L340.615149,32.64 C341.383149,32.576 341.783149,32.432 341.815149,32.208 C341.847149,32.08 341.863149,31.616 341.863149,30.816 L341.863149,17.616 C341.863149,15.216 341.719149,13.776 341.431149,13.296 C341.047149,12.656 340.295149,12.336 339.175149,12.336 C338.375149,12.336 337.975149,12.192 337.975149,11.904 C337.975149,11.68 338.183149,11.568 338.599149,11.568 L338.791149,11.568 L341.431149,11.616 C341.559149,11.616 341.767149,11.616 342.055149,11.616 C342.375149,11.584 342.663149,11.568 342.919149,11.568 L344.695149,11.568 L356.023149,27.12 L356.023149,13.776 C356.023149,12.976 355.991149,12.512 355.927149,12.384 C355.863149,12.256 355.607149,12.192 355.159149,12.192 C354.743149,12.192 354.407149,12.208 354.151149,12.24 L353.863149,12.24 C353.255149,12.24 352.951149,12.112 352.951149,11.856 C352.951149,11.696 353.103149,11.6 353.407149,11.568 C353.711149,11.536 354.791149,11.52 356.647149,11.52 C358.407149,11.52 359.431149,11.536 359.719149,11.568 C360.007149,11.6 360.151149,11.712 360.151149,11.904 Z" id="Path"></path>
            </g>
            <g id="University-of-Georgi" transform="translate(0, 45.74)">
                <path d="M14.82,0.46 C14.82,0.58 14.7066667,0.64 14.48,0.64 L14.24,0.64 C14.16,0.626666667 14.04,0.62 13.88,0.62 C13.5066667,0.62 13.26,0.67 13.14,0.77 C13.02,0.87 12.8866667,1.13333333 12.74,1.56 C12.6866667,1.70666667 12.5266667,2.12 12.26,2.8 L10.44,7.38 C9.30666667,10.2466667 8.32666667,12.0866667 7.5,12.9 C6.47333333,13.9133333 5.14,14.42 3.5,14.42 C2.43333333,14.42 1.58333333,14.2 0.95,13.76 C0.316666667,13.32 -1.42108547e-14,12.7333333 -1.42108547e-14,12 C-1.42108547e-14,11.2266667 0.326666667,10.0333333 0.98,8.42 L3.5,2.22 C3.59333333,1.98 3.72666667,1.66666667 3.9,1.28 C3.95333333,1.18666667 3.98,1.10666667 3.98,1.04 C3.98,0.813333333 3.81333333,0.68 3.48,0.64 L2.88,0.64 C2.74666667,0.64 2.68,0.6 2.68,0.52 C2.68,0.4 2.78666667,0.34 3,0.34 L3.18,0.34 L5.1,0.36 L7.4,0.34 C7.54666667,0.34 7.62,0.38 7.62,0.46 C7.62,0.553333333 7.58666667,0.606666667 7.52,0.62 C7.45333333,0.633333333 7.20666667,0.646666667 6.78,0.66 C6.40666667,0.673333333 6.19333333,0.706666667 6.14,0.76 C6.04666667,0.813333333 5.94666667,0.94 5.84,1.14 C5.72,1.47333333 5.55333333,1.9 5.34,2.42 L2.88,8.62 C2.21333333,10.3 1.88,11.52 1.88,12.28 C1.88,12.7866667 2.06,13.2 2.42,13.52 C2.78,13.84 3.24,14 3.8,14 C5.41333333,14 6.69333333,13.3333333 7.64,12 C8.28,11.0933333 9.04,9.51333333 9.92,7.26 L11.68,2.74 C12.0666667,1.75333333 12.26,1.18666667 12.26,1.04 C12.26,0.76 12.0133333,0.62 11.52,0.62 L11.34,0.62 C11.2333333,0.633333333 11.1333333,0.64 11.04,0.64 C10.92,0.64 10.86,0.593333333 10.86,0.5 C10.86,0.393333333 10.9666667,0.34 11.18,0.34 L11.48,0.34 L14.22,0.36 C14.34,0.346666667 14.4733333,0.34 14.62,0.34 C14.7533333,0.34 14.82,0.38 14.82,0.46 Z" id="Path"></path>
                <path d="M20.9455319,7.12 C20.9455319,7.44 20.7721986,7.99333333 20.4255319,8.78 L18.8055319,12.44 C18.6188652,12.8666667 18.5255319,13.1533333 18.5255319,13.3 C18.5255319,13.58 18.6788652,13.72 18.9855319,13.72 C19.3588652,13.72 19.9055319,13.4133333 20.6255319,12.8 C20.6921986,12.76 20.7455319,12.74 20.7855319,12.74 C20.8655319,12.74 20.9055319,12.7733333 20.9055319,12.84 C20.9055319,13 20.6855319,13.2333333 20.2455319,13.54 C19.6455319,13.9533333 19.0055319,14.16 18.3255319,14.16 C17.9121986,14.16 17.5721986,14.07 17.3055319,13.89 C17.0388652,13.71 16.9055319,13.48 16.9055319,13.2 C16.9055319,12.9733333 17.0321986,12.5733333 17.2855319,12 L18.8855319,8.42 C19.2721986,7.55333333 19.4655319,6.96666667 19.4655319,6.66 C19.4655319,6.20666667 19.2321986,5.98 18.7655319,5.98 C18.1521986,5.98 17.4321986,6.42 16.6055319,7.3 C15.9788652,7.96666667 15.4055319,8.9 14.8855319,10.1 L13.2455319,13.9 C13.1788652,14.1 13.0921986,14.2 12.9855319,14.2 C12.9588652,14.2 12.8121986,14.1866667 12.5455319,14.16 C12.5055319,14.1466667 12.4255319,14.14 12.3055319,14.14 C12.1988652,14.14 12.0188652,14.1533333 11.7655319,14.18 C11.7255319,14.1933333 11.6788652,14.2 11.6255319,14.2 C11.5321986,14.2 11.4855319,14.1666667 11.4855319,14.1 C11.4855319,14.0733333 11.5055319,14.0333333 11.5455319,13.98 L11.6855319,13.68 L14.7455319,6.32 C14.7855319,6.25333333 14.8188652,6.19333333 14.8455319,6.14 C14.8321986,6.04666667 14.6655319,5.99333333 14.3455319,5.98 C13.9455319,5.96666667 13.7455319,5.89333333 13.7455319,5.76 C13.7455319,5.66666667 13.8188652,5.62 13.9655319,5.62 C14.0588652,5.62 14.2055319,5.63333333 14.4055319,5.66 C14.6055319,5.68666667 14.7588652,5.7 14.8655319,5.7 C15.5855319,5.7 16.0588652,5.64666667 16.2855319,5.54 C16.3788652,5.5 16.4388652,5.48 16.4655319,5.48 C16.5455319,5.48 16.5855319,5.52 16.5855319,5.6 C16.5855319,5.64 16.5788652,5.67333333 16.5655319,5.7 L15.8255319,7.58 C15.9321986,7.46 16.0855319,7.29333333 16.2855319,7.08 C17.2721986,6.04 18.2255319,5.52 19.1455319,5.52 C19.6788652,5.52 20.1121986,5.67 20.4455319,5.97 C20.7788652,6.27 20.9455319,6.65333333 20.9455319,7.12 Z" id="Path"></path>
                <path d="M28.4310638,1.92 C28.4310638,2.48 28.1710638,2.76 27.6510638,2.76 C27.3843972,2.76 27.1643972,2.67666667 26.9910638,2.51 C26.8177305,2.34333333 26.7310638,2.13333333 26.7310638,1.88 C26.7310638,1.33333333 27.0377305,1.06 27.6510638,1.06 C28.1710638,1.06 28.4310638,1.34666667 28.4310638,1.92 Z M27.0510638,5.66 C27.0510638,5.7 27.0177305,5.78 26.9510638,5.9 C26.8577305,6.06 26.7043972,6.38666667 26.4910638,6.88 L24.1910638,12.14 C23.8843972,12.8466667 23.7310638,13.2866667 23.7310638,13.46 C23.7310638,13.82 23.9177305,14 24.2910638,14 C24.5443972,14 24.8343972,13.91 25.1610638,13.73 C25.4877305,13.55 25.7377305,13.3333333 25.9110638,13.08 C26.0310638,12.92 26.1243972,12.84 26.1910638,12.84 C26.2710638,12.84 26.3110638,12.88 26.3110638,12.96 C26.3110638,13.12 26.1243972,13.36 25.7510638,13.68 C25.1910638,14.16 24.5577305,14.4 23.8510638,14.4 C23.3843972,14.4 23.0010638,14.28 22.7010638,14.04 C22.4010638,13.8 22.2510638,13.4933333 22.2510638,13.12 C22.2510638,12.7866667 22.4177305,12.2466667 22.7510638,11.5 L24.8310638,6.86 C24.8977305,6.63333333 24.9777305,6.46 25.0710638,6.34 C25.1110638,6.28666667 25.1310638,6.24 25.1310638,6.2 C25.1310638,6.08 24.8377305,6 24.2510638,5.96 C24.1443972,5.93333333 24.0910638,5.88666667 24.0910638,5.82 C24.0910638,5.7 24.1443972,5.64 24.2510638,5.64 C24.2643972,5.64 24.3643972,5.65333333 24.5510638,5.68 C24.7377305,5.70666667 25.0377305,5.72 25.4510638,5.72 C26.0110638,5.72 26.4043972,5.67333333 26.6310638,5.58 C26.7643972,5.52666667 26.8577305,5.5 26.9110638,5.5 C27.0043972,5.5 27.0510638,5.55333333 27.0510638,5.66 Z" id="Shape"></path>
                <path d="M35.7965957,6.68 C35.7965957,7.66666667 35.6065957,8.68666667 35.2265957,9.74 C34.8465957,10.7933333 34.3299291,11.7266667 33.6765957,12.54 C32.6765957,13.78 31.6499291,14.4 30.5965957,14.4 C30.0232624,14.4 29.5499291,14.2433333 29.1765957,13.93 C28.8032624,13.6166667 28.6165957,13.2133333 28.6165957,12.72 C28.6165957,12.1066667 28.8765957,11.1866667 29.3965957,9.96 L30.5565957,7.22 C30.7165957,6.84666667 30.7965957,6.6 30.7965957,6.48 C30.7965957,6.2 30.6365957,6.06 30.3165957,6.06 C30.0499291,6.06 29.6932624,6.25666667 29.2465957,6.65 C28.7999291,7.04333333 28.4765957,7.44 28.2765957,7.84 C28.1832624,8.04 28.0832624,8.14 27.9765957,8.14 C27.8565957,8.14 27.7965957,8.09333333 27.7965957,8 C27.7965957,7.70666667 28.1632624,7.21333333 28.8965957,6.52 C29.5899291,5.86666667 30.2699291,5.54 30.9365957,5.54 C31.3499291,5.54 31.6832624,5.64666667 31.9365957,5.86 C32.1899291,6.07333333 32.3165957,6.35333333 32.3165957,6.7 C32.3165957,7.07333333 32.1899291,7.55333333 31.9365957,8.14 L30.8165957,10.74 C30.4432624,11.6066667 30.2565957,12.34 30.2565957,12.94 C30.2565957,13.6333333 30.5432624,13.98 31.1165957,13.98 C31.9565957,13.98 32.8732624,13.2133333 33.8665957,11.68 C34.8599291,10.1466667 35.3565957,8.72 35.3565957,7.4 C35.3565957,6.96 35.2632624,6.74 35.0765957,6.74 C35.0632624,6.74 34.9999291,6.75666667 34.8865957,6.79 C34.7732624,6.82333333 34.6765957,6.84 34.5965957,6.84 C34.2365957,6.84 34.0565957,6.67333333 34.0565957,6.34 C34.0565957,6.12666667 34.1399291,5.94333333 34.3065957,5.79 C34.4732624,5.63666667 34.6699291,5.56 34.8965957,5.56 C35.4965957,5.56 35.7965957,5.93333333 35.7965957,6.68 Z" id="Path"></path>
                <path d="M44.6221277,6.9 C44.6221277,7.62 44.235461,8.21666667 43.4621277,8.69 C42.6887943,9.16333333 41.7087943,9.4 40.5221277,9.4 C40.095461,9.4 39.6221277,9.36666667 39.1021277,9.3 C38.6087943,10.3266667 38.3621277,11.28 38.3621277,12.16 C38.3621277,13.3466667 38.8887943,13.94 39.9421277,13.94 C40.755461,13.94 41.5487943,13.5133333 42.3221277,12.66 C42.495461,12.4733333 42.6087943,12.38 42.6621277,12.38 C42.7287943,12.38 42.7621277,12.4133333 42.7621277,12.48 C42.7621277,12.7866667 42.4487943,13.1666667 41.8221277,13.62 C41.1021277,14.14 40.355461,14.4 39.5821277,14.4 C38.715461,14.4 38.0021277,14.1466667 37.4421277,13.64 C36.8821277,13.1333333 36.6021277,12.4933333 36.6021277,11.72 C36.6021277,10.2266667 37.415461,8.78 39.0421277,7.38 C40.4687943,6.15333333 41.7421277,5.54 42.8621277,5.54 C44.035461,5.54 44.6221277,5.99333333 44.6221277,6.9 Z M43.2021277,6.56 C43.2021277,6.14666667 42.995461,5.94 42.5821277,5.94 C42.155461,5.94 41.735461,6.1 41.3221277,6.42 C40.575461,7.00666667 39.8887943,7.88 39.2621277,9.04 C39.4221277,9.05333333 39.6021277,9.06 39.8021277,9.06 C40.5487943,9.06 41.275461,8.83333333 41.9821277,8.38 C42.795461,7.87333333 43.2021277,7.26666667 43.2021277,6.56 Z" id="Shape"></path>
                <path d="M52.4476596,6.46 C52.4476596,6.72666667 52.3609929,6.95666667 52.1876596,7.15 C52.0143262,7.34333333 51.8143262,7.44 51.5876596,7.44 C51.3743262,7.44 51.2676596,7.36666667 51.2676596,7.22 C51.2676596,7.22 51.2809929,7.15333333 51.3076596,7.02 C51.3343262,6.94 51.3476596,6.86666667 51.3476596,6.8 C51.3476596,6.48 51.1876596,6.32 50.8676596,6.32 C50.4809929,6.32 49.9409929,6.69333333 49.2476596,7.44 C48.5543262,8.18666667 47.9009929,9.23333333 47.2876596,10.58 L45.8476596,13.74 C45.7143262,14.0466667 45.6009929,14.2 45.5076596,14.2 C45.2409929,14.16 45.0343262,14.14 44.8876596,14.14 C44.6609929,14.14 44.4809929,14.1533333 44.3476596,14.18 L44.2276596,14.18 C44.1076596,14.18 44.0476596,14.1533333 44.0476596,14.1 C44.0476596,14.0866667 44.0676596,14.06 44.1076596,14.02 L44.2076596,13.82 L47.5876596,6.14 C47.5876596,6.03333333 47.5009929,5.98 47.3276596,5.98 C47.3409929,5.98 47.3143262,5.98 47.2476596,5.98 C47.1943262,5.99333333 47.1076596,6 46.9876596,6 L46.7876596,6 C46.5876596,6 46.4876596,5.95333333 46.4876596,5.86 C46.4876596,5.78 46.8343262,5.72666667 47.5276596,5.7 C48.2209929,5.67333333 48.6876596,5.61333333 48.9276596,5.52 C49.0343262,5.49333333 49.0943262,5.48 49.1076596,5.48 C49.1876596,5.48 49.2276596,5.52 49.2276596,5.6 C49.2276596,5.66666667 49.1409929,5.91333333 48.9676596,6.34 L48.2276596,8.14 C49.4543262,6.43333333 50.5343262,5.58 51.4676596,5.58 C52.1209929,5.58 52.4476596,5.87333333 52.4476596,6.46 Z" id="Path"></path>
                <path d="M59.1131915,7.06 C59.1131915,7.28666667 59.0398582,7.48 58.8931915,7.64 C58.7465248,7.8 58.5731915,7.88 58.3731915,7.88 C57.9731915,7.88 57.7731915,7.68666667 57.7731915,7.3 C57.7731915,6.98 57.9065248,6.82 58.1731915,6.82 C58.2131915,6.82 58.2765248,6.84 58.3631915,6.88 C58.4498582,6.92 58.5198582,6.94 58.5731915,6.94 C58.6531915,6.94 58.6931915,6.89333333 58.6931915,6.8 C58.6931915,6.57333333 58.5398582,6.35333333 58.2331915,6.14 C57.9265248,5.92666667 57.6131915,5.82 57.2931915,5.82 C56.8665248,5.82 56.5065248,5.95666667 56.2131915,6.23 C55.9198582,6.50333333 55.7731915,6.83333333 55.7731915,7.22 C55.7731915,7.55333333 56.0865248,8.48 56.7131915,10 C56.8598582,10.36 56.9331915,10.7666667 56.9331915,11.22 C56.9331915,12.1266667 56.6265248,12.8866667 56.0131915,13.5 C55.3998582,14.1133333 54.6331915,14.42 53.7131915,14.42 C52.9131915,14.42 52.2431915,14.1966667 51.7031915,13.75 C51.1631915,13.3033333 50.8931915,12.7533333 50.8931915,12.1 C50.8931915,11.7266667 51.0031915,11.42 51.2231915,11.18 C51.4431915,10.94 51.7198582,10.82 52.0531915,10.82 C52.3065248,10.82 52.5231915,10.9066667 52.7031915,11.08 C52.8831915,11.2533333 52.9731915,11.46 52.9731915,11.7 C52.9731915,12.1 52.7798582,12.3 52.3931915,12.3 C51.9798582,12.3 51.7731915,12.16 51.7731915,11.88 C51.7731915,11.7866667 51.7898582,11.6933333 51.8231915,11.6 C51.8565248,11.5066667 51.8731915,11.4533333 51.8731915,11.44 C51.8731915,11.3066667 51.8198582,11.24 51.7131915,11.24 C51.5931915,11.24 51.4831915,11.33 51.3831915,11.51 C51.2831915,11.69 51.2331915,11.8866667 51.2331915,12.1 C51.2331915,12.62 51.4498582,13.0733333 51.8831915,13.46 C52.3165248,13.8466667 52.8265248,14.04 53.4131915,14.04 C53.9598582,14.04 54.4165248,13.8733333 54.7831915,13.54 C55.1498582,13.2066667 55.3331915,12.7866667 55.3331915,12.28 C55.3331915,11.92 55.1931915,11.3333333 54.9131915,10.52 C54.6465248,9.74666667 54.5131915,9.10666667 54.5131915,8.6 C54.5131915,7.73333333 54.7765248,7.00333333 55.3031915,6.41 C55.8298582,5.81666667 56.4731915,5.52 57.2331915,5.52 C57.7398582,5.52 58.1798582,5.67333333 58.5531915,5.98 C58.9265248,6.28666667 59.1131915,6.64666667 59.1131915,7.06 Z" id="Path"></path>
                <path d="M65.3587234,1.92 C65.3587234,2.48 65.0987234,2.76 64.5787234,2.76 C64.3120567,2.76 64.0920567,2.67666667 63.9187234,2.51 C63.7453901,2.34333333 63.6587234,2.13333333 63.6587234,1.88 C63.6587234,1.33333333 63.9653901,1.06 64.5787234,1.06 C65.0987234,1.06 65.3587234,1.34666667 65.3587234,1.92 Z M63.9787234,5.66 C63.9787234,5.7 63.9453901,5.78 63.8787234,5.9 C63.7853901,6.06 63.6320567,6.38666667 63.4187234,6.88 L61.1187234,12.14 C60.8120567,12.8466667 60.6587234,13.2866667 60.6587234,13.46 C60.6587234,13.82 60.8453901,14 61.2187234,14 C61.4720567,14 61.7620567,13.91 62.0887234,13.73 C62.4153901,13.55 62.6653901,13.3333333 62.8387234,13.08 C62.9587234,12.92 63.0520567,12.84 63.1187234,12.84 C63.1987234,12.84 63.2387234,12.88 63.2387234,12.96 C63.2387234,13.12 63.0520567,13.36 62.6787234,13.68 C62.1187234,14.16 61.4853901,14.4 60.7787234,14.4 C60.3120567,14.4 59.9287234,14.28 59.6287234,14.04 C59.3287234,13.8 59.1787234,13.4933333 59.1787234,13.12 C59.1787234,12.7866667 59.3453901,12.2466667 59.6787234,11.5 L61.7587234,6.86 C61.8253901,6.63333333 61.9053901,6.46 61.9987234,6.34 C62.0387234,6.28666667 62.0587234,6.24 62.0587234,6.2 C62.0587234,6.08 61.7653901,6 61.1787234,5.96 C61.0720567,5.93333333 61.0187234,5.88666667 61.0187234,5.82 C61.0187234,5.7 61.0720567,5.64 61.1787234,5.64 C61.1920567,5.64 61.2920567,5.65333333 61.4787234,5.68 C61.6653901,5.70666667 61.9653901,5.72 62.3787234,5.72 C62.9387234,5.72 63.3320567,5.67333333 63.5587234,5.58 C63.6920567,5.52666667 63.7853901,5.5 63.8387234,5.5 C63.9320567,5.5 63.9787234,5.55333333 63.9787234,5.66 Z" id="Shape"></path>
                <path d="M70.8442553,5.76 C70.8442553,5.94666667 70.5642553,6.04666667 70.0042553,6.06 L69.2442553,6.08 L68.8842553,6.08 L66.1842553,12.14 C65.890922,12.7933333 65.7442553,13.2066667 65.7442553,13.38 C65.7442553,13.66 65.950922,13.8 66.3642553,13.8 C66.9642553,13.8 67.4975887,13.48 67.9642553,12.84 C68.070922,12.7066667 68.150922,12.64 68.2042553,12.64 C68.310922,12.64 68.3642553,12.6866667 68.3642553,12.78 C68.3642553,12.9533333 68.1442553,13.2333333 67.7042553,13.62 C67.1975887,14.06 66.590922,14.28 65.8842553,14.28 C65.4042553,14.28 65.0142553,14.16 64.7142553,13.92 C64.4142553,13.68 64.2642553,13.3733333 64.2642553,13 C64.2642553,12.76 64.4175887,12.3133333 64.7242553,11.66 L67.3442553,6.04 L66.5242553,6.04 C66.2975887,6.04 66.1842553,5.99333333 66.1842553,5.9 C66.1842553,5.72666667 66.2775887,5.64 66.4642553,5.64 L66.6442553,5.64 C66.710922,5.65333333 66.8175887,5.66 66.9642553,5.66 C67.150922,5.66 67.330922,5.65333333 67.5042553,5.64 L67.8442553,4.78 C67.9642553,4.48666667 68.0575887,4.34 68.1242553,4.34 C68.190922,4.34 68.2942553,4.35333333 68.4342553,4.38 C68.5742553,4.40666667 68.6842553,4.42 68.7642553,4.42 C68.910922,4.42 69.1242553,4.35333333 69.4042553,4.22 C69.4575887,4.19333333 69.5042553,4.18 69.5442553,4.18 C69.610922,4.18 69.6442553,4.20666667 69.6442553,4.26 C69.6442553,4.26 69.570922,4.42 69.4242553,4.74 L68.9842553,5.7 L69.4642553,5.68 L70.2242553,5.64 C70.290922,5.64 70.370922,5.63333333 70.4642553,5.62 C70.5575887,5.60666667 70.610922,5.6 70.6242553,5.6 C70.770922,5.6 70.8442553,5.65333333 70.8442553,5.76 Z" id="Path"></path>
                <path d="M80.4897872,6.18 C80.4897872,6.64666667 80.2631206,6.88 79.8097872,6.88 C79.5964539,6.88 79.4431206,6.75333333 79.3497872,6.5 C79.3231206,6.44666667 79.2897872,6.42 79.2497872,6.42 C79.1164539,6.42 78.8297872,6.78 78.3897872,7.5 L76.3297872,10.86 C76.2497872,11.0066667 75.3097872,12.4466667 73.5097872,15.18 C72.5764539,16.6066667 71.6097872,17.7266667 70.6097872,18.54 C70.0231206,19.02 69.4431206,19.26 68.8697872,19.26 C68.2697872,19.26 67.9697872,19.04 67.9697872,18.6 C67.9697872,18.3733333 68.0497872,18.1866667 68.2097872,18.04 C68.3697872,17.8933333 68.5697872,17.82 68.8097872,17.82 C68.9831206,17.82 69.0931206,17.8466667 69.1397872,17.9 C69.1864539,17.9533333 69.2164539,18.1133333 69.2297872,18.38 C69.2431206,18.58 69.3364539,18.68 69.5097872,18.68 C69.7497872,18.68 70.1197872,18.4666667 70.6197872,18.04 C71.1197872,17.6133333 71.5897872,17.1133333 72.0297872,16.54 C72.6964539,15.6733333 73.0297872,14.92 73.0297872,14.28 C73.0297872,14.0933333 73.0231206,13.9266667 73.0097872,13.78 L73.0097872,13.3 L72.9697872,7.54 C72.9697872,6.62 72.7697872,6.16 72.3697872,6.16 C71.8897872,6.16 71.4297872,6.67333333 70.9897872,7.7 C70.8297872,8.07333333 70.6964539,8.26 70.5897872,8.26 C70.4831206,8.26 70.4297872,8.2 70.4297872,8.08 C70.4297872,7.81333333 70.6297872,7.38 71.0297872,6.78 C71.6297872,5.88666667 72.3364539,5.44 73.1497872,5.44 C73.7497872,5.44 74.1297872,5.64 74.2897872,6.04 C74.4097872,6.34666667 74.4697872,6.86 74.4697872,7.58 L74.4697872,8.12 L74.4097872,11.68 C74.4097872,12.1733333 74.4231206,12.6666667 74.4497872,13.16 L74.7697872,12.68 C74.9031206,12.44 75.1164539,12.08 75.4097872,11.6 L76.0497872,10.62 L77.7697872,7.78 C78.4231206,6.71333333 78.8464539,6.06666667 79.0397872,5.84 C79.2331206,5.61333333 79.4831206,5.5 79.7897872,5.5 C80.2564539,5.5 80.4897872,5.72666667 80.4897872,6.18 Z" id="Path"></path>
                <path d="M92.7008511,8.76 C92.7008511,10.32 91.9875177,11.7266667 90.5608511,12.98 C89.4408511,13.9666667 88.2741844,14.46 87.0608511,14.46 C86.2341844,14.46 85.5541844,14.1733333 85.0208511,13.6 C84.4875177,13.0266667 84.2208511,12.2866667 84.2208511,11.38 C84.2208511,10.6066667 84.4408511,9.81333333 84.8808511,9 C85.3208511,8.18666667 85.9075177,7.49333333 86.6408511,6.92 C87.7875177,6.02666667 88.8941844,5.58 89.9608511,5.58 C90.7741844,5.58 91.4341844,5.87333333 91.9408511,6.46 C92.4475177,7.04666667 92.7008511,7.81333333 92.7008511,8.76 Z M91.1608511,7.46 C91.1608511,6.44666667 90.7075177,5.94 89.8008511,5.94 C88.6941844,5.94 87.7341844,6.73333333 86.9208511,8.32 C86.1475177,9.84 85.7608511,11.2666667 85.7608511,12.6 C85.7608511,13.6 86.2075177,14.1 87.1008511,14.1 C88.2208511,14.1 89.1541844,13.38 89.9008511,11.94 C90.7408511,10.3133333 91.1608511,8.82 91.1608511,7.46 Z" id="Shape"></path>
                <path d="M103.686383,1.28 C103.686383,1.8 103.439716,2.06 102.946383,2.06 C102.77305,2.06 102.62305,2.00333333 102.496383,1.89 C102.369716,1.77666667 102.306383,1.64666667 102.306383,1.5 C102.306383,1.39333333 102.39305,1.24 102.566383,1.04 C102.619716,0.933333333 102.646383,0.846666667 102.646383,0.78 C102.646383,0.446666667 102.366383,0.28 101.806383,0.28 C101.219716,0.28 100.746383,0.53 100.386383,1.03 C100.026383,1.53 99.5730496,2.54666667 99.026383,4.08 L98.486383,5.6 L100.546383,5.6 C100.61305,5.58666667 100.699716,5.58 100.806383,5.58 C100.95305,5.58 101.026383,5.65333333 101.026383,5.8 C101.026383,5.94666667 100.93305,6.02 100.746383,6.02 L98.406383,6 L96.666383,10.76 C95.4130496,14.1866667 94.1930496,16.58 93.006383,17.94 C92.526383,18.4866667 92.0830496,18.87 91.676383,19.09 C91.2697163,19.31 90.786383,19.42 90.226383,19.42 C89.0930496,19.42 88.526383,19.04 88.526383,18.28 C88.526383,17.7333333 88.8197163,17.46 89.406383,17.46 C89.806383,17.46 90.006383,17.6266667 90.006383,17.96 C90.006383,18.0666667 89.9397163,18.2066667 89.806383,18.38 C89.726383,18.4733333 89.686383,18.56 89.686383,18.64 C89.686383,18.9333333 89.886383,19.08 90.286383,19.08 C90.9797163,19.08 91.5730496,18.7466667 92.066383,18.08 C92.4530496,17.5466667 92.9597163,16.3933333 93.586383,14.62 L96.606383,6.04 L96.146383,6.04 L95.146383,6.06 C95.0397163,6.07333333 94.9197163,6.08 94.786383,6.08 C94.626383,6.08 94.546383,6.02666667 94.546383,5.92 C94.546383,5.72 94.7130496,5.6 95.046383,5.56 C95.0730496,5.56 95.3130496,5.56666667 95.766383,5.58 L96.486383,5.6 L96.766383,5.6 C97.566383,3.69333333 98.2197163,2.39333333 98.726383,1.7 C99.566383,0.566666667 100.626383,0 101.906383,0 C102.439716,0 102.869716,0.116666667 103.196383,0.35 C103.52305,0.583333333 103.686383,0.893333333 103.686383,1.28 Z" id="Path"></path>
                <path d="M118.377447,0.8 C118.377447,0.84 118.297447,1.01333333 118.137447,1.32 C118.057447,1.48 117.937447,1.75333333 117.777447,2.14 L117.437447,2.98 C117.144113,3.71333333 116.97078,4.13333333 116.917447,4.24 C116.864113,4.34666667 116.797447,4.4 116.717447,4.4 C116.61078,4.4 116.557447,4.35333333 116.557447,4.26 C116.557447,4.20666667 116.59078,4.04666667 116.657447,3.78 C116.804113,3.19333333 116.877447,2.72666667 116.877447,2.38 C116.877447,1.83333333 116.657447,1.37 116.217447,0.99 C115.777447,0.61 115.23078,0.42 114.577447,0.42 C113.684113,0.42 112.75078,0.743333333 111.777447,1.39 C110.804113,2.03666667 109.944113,2.91333333 109.197447,4.02 C108.41078,5.18 107.777447,6.5 107.297447,7.98 C106.964113,9.02 106.797447,10.0133333 106.797447,10.96 C106.797447,11.96 107.044113,12.7333333 107.537447,13.28 C108.03078,13.8266667 108.724113,14.1 109.617447,14.1 C110.99078,14.1 111.95078,13.5266667 112.497447,12.38 C112.87078,11.6066667 113.057447,10.9733333 113.057447,10.48 C113.057447,10.2266667 112.844113,10.1 112.417447,10.1 L112.157447,10.1 C112.024113,10.1 111.864113,10.1066667 111.677447,10.12 C111.45078,10.12 111.337447,10.06 111.337447,9.94 C111.337447,9.80666667 111.417447,9.74 111.577447,9.74 C111.697447,9.74 111.797447,9.74666667 111.877447,9.76 L114.097447,9.8 L116.677447,9.76 C116.904113,9.76 117.017447,9.82666667 117.017447,9.96 C117.017447,10.0933333 116.804113,10.16 116.377447,10.16 L115.717447,10.16 C115.41078,10.16 115.207447,10.2 115.107447,10.28 C115.007447,10.36 114.91078,10.5666667 114.817447,10.9 L114.497447,12 C114.39078,12.3466667 113.97078,12.7666667 113.237447,13.26 C112.09078,14.02 110.764113,14.4 109.257447,14.4 C107.79078,14.4 106.677447,14.08 105.917447,13.44 C105.064113,12.7333333 104.637447,11.76 104.637447,10.52 C104.637447,9.26666667 104.964113,7.96666667 105.617447,6.62 C106.27078,5.27333333 107.164113,4.04666667 108.297447,2.94 C110.31078,0.993333333 112.384113,0.02 114.517447,0.02 C115.424113,0.02 116.164113,0.266666667 116.737447,0.76 C117.084113,1.05333333 117.344113,1.2 117.517447,1.2 C117.757447,1.2 117.964113,1.04666667 118.137447,0.74 C118.164113,0.713333333 118.21078,0.7 118.277447,0.7 C118.344113,0.7 118.377447,0.733333333 118.377447,0.8 Z" id="Path"></path>
                <path d="M125.702979,6.9 C125.702979,7.62 125.316312,8.21666667 124.542979,8.69 C123.769645,9.16333333 122.789645,9.4 121.602979,9.4 C121.176312,9.4 120.702979,9.36666667 120.182979,9.3 C119.689645,10.3266667 119.442979,11.28 119.442979,12.16 C119.442979,13.3466667 119.969645,13.94 121.022979,13.94 C121.836312,13.94 122.629645,13.5133333 123.402979,12.66 C123.576312,12.4733333 123.689645,12.38 123.742979,12.38 C123.809645,12.38 123.842979,12.4133333 123.842979,12.48 C123.842979,12.7866667 123.529645,13.1666667 122.902979,13.62 C122.182979,14.14 121.436312,14.4 120.662979,14.4 C119.796312,14.4 119.082979,14.1466667 118.522979,13.64 C117.962979,13.1333333 117.682979,12.4933333 117.682979,11.72 C117.682979,10.2266667 118.496312,8.78 120.122979,7.38 C121.549645,6.15333333 122.822979,5.54 123.942979,5.54 C125.116312,5.54 125.702979,5.99333333 125.702979,6.9 Z M124.282979,6.56 C124.282979,6.14666667 124.076312,5.94 123.662979,5.94 C123.236312,5.94 122.816312,6.1 122.402979,6.42 C121.656312,7.00666667 120.969645,7.88 120.342979,9.04 C120.502979,9.05333333 120.682979,9.06 120.882979,9.06 C121.629645,9.06 122.356312,8.83333333 123.062979,8.38 C123.876312,7.87333333 124.282979,7.26666667 124.282979,6.56 Z" id="Shape"></path>
                <path d="M134.268511,8.76 C134.268511,10.32 133.555177,11.7266667 132.128511,12.98 C131.008511,13.9666667 129.841844,14.46 128.628511,14.46 C127.801844,14.46 127.121844,14.1733333 126.588511,13.6 C126.055177,13.0266667 125.788511,12.2866667 125.788511,11.38 C125.788511,10.6066667 126.008511,9.81333333 126.448511,9 C126.888511,8.18666667 127.475177,7.49333333 128.208511,6.92 C129.355177,6.02666667 130.461844,5.58 131.528511,5.58 C132.341844,5.58 133.001844,5.87333333 133.508511,6.46 C134.015177,7.04666667 134.268511,7.81333333 134.268511,8.76 Z M132.728511,7.46 C132.728511,6.44666667 132.275177,5.94 131.368511,5.94 C130.261844,5.94 129.301844,6.73333333 128.488511,8.32 C127.715177,9.84 127.328511,11.2666667 127.328511,12.6 C127.328511,13.6 127.775177,14.1 128.668511,14.1 C129.788511,14.1 130.721844,13.38 131.468511,11.94 C132.308511,10.3133333 132.728511,8.82 132.728511,7.46 Z" id="Shape"></path>
                <path d="M143.194043,6.46 C143.194043,6.72666667 143.107376,6.95666667 142.934043,7.15 C142.760709,7.34333333 142.560709,7.44 142.334043,7.44 C142.120709,7.44 142.014043,7.36666667 142.014043,7.22 C142.014043,7.22 142.027376,7.15333333 142.054043,7.02 C142.080709,6.94 142.094043,6.86666667 142.094043,6.8 C142.094043,6.48 141.934043,6.32 141.614043,6.32 C141.227376,6.32 140.687376,6.69333333 139.994043,7.44 C139.300709,8.18666667 138.647376,9.23333333 138.034043,10.58 L136.594043,13.74 C136.460709,14.0466667 136.347376,14.2 136.254043,14.2 C135.987376,14.16 135.780709,14.14 135.634043,14.14 C135.407376,14.14 135.227376,14.1533333 135.094043,14.18 L134.974043,14.18 C134.854043,14.18 134.794043,14.1533333 134.794043,14.1 C134.794043,14.0866667 134.814043,14.06 134.854043,14.02 L134.954043,13.82 L138.334043,6.14 C138.334043,6.03333333 138.247376,5.98 138.074043,5.98 C138.087376,5.98 138.060709,5.98 137.994043,5.98 C137.940709,5.99333333 137.854043,6 137.734043,6 L137.534043,6 C137.334043,6 137.234043,5.95333333 137.234043,5.86 C137.234043,5.78 137.580709,5.72666667 138.274043,5.7 C138.967376,5.67333333 139.434043,5.61333333 139.674043,5.52 C139.780709,5.49333333 139.840709,5.48 139.854043,5.48 C139.934043,5.48 139.974043,5.52 139.974043,5.6 C139.974043,5.66666667 139.887376,5.91333333 139.714043,6.34 L138.974043,8.14 C140.200709,6.43333333 141.280709,5.58 142.214043,5.58 C142.867376,5.58 143.194043,5.87333333 143.194043,6.46 Z" id="Path"></path>
                <path d="M151.919574,6.3 C151.919574,6.72666667 151.719574,6.94 151.319574,6.94 C150.946241,6.94 150.759574,6.76 150.759574,6.4 C150.759574,6.36 150.766241,6.31666667 150.779574,6.27 C150.792908,6.22333333 150.806241,6.16 150.819574,6.08 C150.819574,6.01333333 150.779574,5.98 150.699574,5.98 C150.566241,5.98 150.376241,6.12333333 150.129574,6.41 C149.882908,6.69666667 149.759574,6.91333333 149.759574,7.06 C149.759574,7.12666667 149.786241,7.20666667 149.839574,7.3 C149.999574,7.67333333 150.079574,8.08 150.079574,8.52 C150.079574,9.46666667 149.762908,10.27 149.129574,10.93 C148.496241,11.59 147.652908,11.92 146.599574,11.92 C145.826241,11.92 145.132908,11.7 144.519574,11.26 C143.492908,11.62 142.979574,12.02 142.979574,12.46 C142.979574,12.74 143.179574,12.9133333 143.579574,12.98 C144.326241,13.1 144.746241,13.1466667 144.839574,13.12 L146.499574,13.12 C147.259574,13.12 147.806241,13.16 148.139574,13.24 C149.126241,13.48 149.619574,14.2 149.619574,15.4 C149.619574,16.4666667 149.239574,17.3866667 148.479574,18.16 C147.666241,18.9866667 146.539574,19.4 145.099574,19.4 C144.059574,19.4 143.139574,19.16 142.339574,18.68 C141.366241,18.0933333 140.879574,17.4066667 140.879574,16.62 C140.879574,16.0733333 141.126241,15.62 141.619574,15.26 C141.846241,15.1 142.346241,14.8733333 143.119574,14.58 C142.346241,14.26 141.959574,13.7933333 141.959574,13.18 C141.959574,12.1666667 142.732908,11.44 144.279574,11 C143.852908,10.44 143.639574,9.87333333 143.639574,9.3 C143.639574,8.27333333 144.016241,7.39 144.769574,6.65 C145.522908,5.91 146.419574,5.54 147.459574,5.54 C148.259574,5.54 148.939574,5.9 149.499574,6.62 C149.992908,5.86 150.512908,5.48 151.059574,5.48 C151.632908,5.48 151.919574,5.75333333 151.919574,6.3 Z M148.679574,7.28 C148.679574,6.34666667 148.292908,5.88 147.519574,5.88 C146.879574,5.88 146.306241,6.44 145.799574,7.56 C145.359574,8.52 145.139574,9.42 145.139574,10.26 C145.139574,11.1266667 145.566241,11.56 146.419574,11.56 C147.046241,11.56 147.586241,11.0466667 148.039574,10.02 C148.466241,9.06 148.679574,8.14666667 148.679574,7.28 Z M149.039574,16.14 C149.039574,15.8066667 148.932908,15.51 148.719574,15.25 C148.506241,14.99 148.239574,14.8266667 147.919574,14.76 C147.479574,14.6666667 146.779574,14.6266667 145.819574,14.64 L143.559574,14.68 C142.732908,15.0933333 142.319574,15.7333333 142.319574,16.6 C142.319574,17.3333333 142.582908,17.9233333 143.109574,18.37 C143.636241,18.8166667 144.332908,19.04 145.199574,19.04 C146.226241,19.04 147.122908,18.75 147.889574,18.17 C148.656241,17.59 149.039574,16.9133333 149.039574,16.14 Z" id="Shape"></path>
                <path d="M157.845106,1.92 C157.845106,2.48 157.585106,2.76 157.065106,2.76 C156.79844,2.76 156.57844,2.67666667 156.405106,2.51 C156.231773,2.34333333 156.145106,2.13333333 156.145106,1.88 C156.145106,1.33333333 156.451773,1.06 157.065106,1.06 C157.585106,1.06 157.845106,1.34666667 157.845106,1.92 Z M156.465106,5.66 C156.465106,5.7 156.431773,5.78 156.365106,5.9 C156.271773,6.06 156.11844,6.38666667 155.905106,6.88 L153.605106,12.14 C153.29844,12.8466667 153.145106,13.2866667 153.145106,13.46 C153.145106,13.82 153.331773,14 153.705106,14 C153.95844,14 154.24844,13.91 154.575106,13.73 C154.901773,13.55 155.151773,13.3333333 155.325106,13.08 C155.445106,12.92 155.53844,12.84 155.605106,12.84 C155.685106,12.84 155.725106,12.88 155.725106,12.96 C155.725106,13.12 155.53844,13.36 155.165106,13.68 C154.605106,14.16 153.971773,14.4 153.265106,14.4 C152.79844,14.4 152.415106,14.28 152.115106,14.04 C151.815106,13.8 151.665106,13.4933333 151.665106,13.12 C151.665106,12.7866667 151.831773,12.2466667 152.165106,11.5 L154.245106,6.86 C154.311773,6.63333333 154.391773,6.46 154.485106,6.34 C154.525106,6.28666667 154.545106,6.24 154.545106,6.2 C154.545106,6.08 154.251773,6 153.665106,5.96 C153.55844,5.93333333 153.505106,5.88666667 153.505106,5.82 C153.505106,5.7 153.55844,5.64 153.665106,5.64 C153.67844,5.64 153.77844,5.65333333 153.965106,5.68 C154.151773,5.70666667 154.451773,5.72 154.865106,5.72 C155.425106,5.72 155.81844,5.67333333 156.045106,5.58 C156.17844,5.52666667 156.271773,5.5 156.325106,5.5 C156.41844,5.5 156.465106,5.55333333 156.465106,5.66 Z" id="Shape"></path>
                <path d="M166.590638,5.62 C166.590638,5.66 166.537305,5.8 166.430638,6.04 L163.790638,12.04 C163.537305,12.6133333 163.410638,13.0533333 163.410638,13.36 C163.410638,13.7066667 163.583972,13.88 163.930638,13.88 C164.450638,13.88 164.970638,13.5266667 165.490638,12.82 C165.597305,12.6733333 165.677305,12.6 165.730638,12.6 C165.783972,12.6 165.810638,12.6266667 165.810638,12.68 C165.810638,12.8266667 165.663972,13.06 165.370638,13.38 C164.783972,14.0066667 164.083972,14.32 163.270638,14.32 C162.857305,14.32 162.520638,14.22 162.260638,14.02 C162.000638,13.82 161.870638,13.56 161.870638,13.24 C161.870638,13.04 161.917305,12.8066667 162.010638,12.54 C161.170638,13.78 160.197305,14.4 159.090638,14.4 C158.397305,14.4 157.830638,14.1766667 157.390638,13.73 C156.950638,13.2833333 156.730638,12.7133333 156.730638,12.02 C156.730638,11.26 156.983972,10.4266667 157.490638,9.52 C157.997305,8.61333333 158.670638,7.78666667 159.510638,7.04 C160.657305,6.02666667 161.710638,5.52 162.670638,5.52 C163.670638,5.52 164.230638,6 164.350638,6.96 L164.850638,5.9 C164.957305,5.68666667 165.050638,5.58 165.130638,5.58 C165.157305,5.58 165.237305,5.59333333 165.370638,5.62 C165.503972,5.64666667 165.597305,5.66 165.650638,5.66 C165.943972,5.66 166.170638,5.62 166.330638,5.54 C166.383972,5.5 166.430638,5.48 166.470638,5.48 C166.550638,5.48 166.590638,5.52666667 166.590638,5.62 Z M164.070638,7.32 C164.070638,6.90666667 163.947305,6.57333333 163.700638,6.32 C163.453972,6.06666667 163.137305,5.94 162.750638,5.94 C162.083972,5.94 161.443972,6.33333333 160.830638,7.12 C160.123972,8.01333333 159.557305,8.95666667 159.130638,9.95 C158.703972,10.9433333 158.490638,11.8133333 158.490638,12.56 C158.490638,13.4666667 158.863972,13.92 159.610638,13.92 C160.037305,13.92 160.500638,13.6866667 161.000638,13.22 C161.500638,12.7533333 161.917305,12.1666667 162.250638,11.46 L163.810638,8.1 C163.983972,7.72666667 164.070638,7.46666667 164.070638,7.32 Z" id="Shape"></path>
                <polygon id="Path" points="177.041702 17.58 175.901702 17.58 175.901702 0.36 177.041702 0.36"></polygon>
                <path d="M198.532766,2.92 C198.532766,4.32 197.759433,5.43333333 196.212766,6.26 C195.426099,6.67333333 194.686099,6.94 193.992766,7.06 C194.806099,7.26 195.406099,7.52666667 195.792766,7.86 C196.312766,8.31333333 196.572766,8.92 196.572766,9.68 C196.572766,10.4266667 196.356099,11.14 195.922766,11.82 C195.489433,12.5 194.906099,13.04 194.172766,13.44 C193.279433,13.9333333 191.626099,14.18 189.212766,14.18 C189.186099,14.18 189.026099,14.18 188.732766,14.18 C188.452766,14.1666667 188.186099,14.16 187.932766,14.16 L186.112766,14.16 C185.326099,14.16 184.872766,14.1666667 184.752766,14.18 L184.632766,14.18 C184.486099,14.18 184.412766,14.1266667 184.412766,14.02 C184.412766,13.8733333 184.499433,13.8066667 184.672766,13.82 L185.552766,13.9 C186.059433,13.86 186.362766,13.8266667 186.462766,13.8 C186.562766,13.7733333 186.646099,13.6866667 186.712766,13.54 C186.739433,13.46 186.789433,13.34 186.862766,13.18 C186.936099,13.02 187.146099,12.5066667 187.492766,11.64 L191.012766,2.88 C191.439433,1.81333333 191.652766,1.18666667 191.652766,1 C191.652766,0.773333333 191.159433,0.66 190.172766,0.66 C189.972766,0.66 189.872766,0.606666667 189.872766,0.5 C189.872766,0.406666667 189.979433,0.353333333 190.192766,0.34 L191.192766,0.3 L194.812766,0.3 C196.066099,0.3 196.966099,0.493333333 197.512766,0.88 C198.192766,1.36 198.532766,2.04 198.532766,2.92 Z M196.612766,2.46 C196.612766,1.27333333 195.912766,0.68 194.512766,0.68 C194.259433,0.68 194.012766,0.686666667 193.772766,0.7 C193.652766,0.94 193.512766,1.26666667 193.352766,1.68 L191.412766,6.74 C191.612766,6.76666667 191.832766,6.78 192.072766,6.78 C193.712766,6.78 194.906099,6.31333333 195.652766,5.38 C196.292766,4.58 196.612766,3.60666667 196.612766,2.46 Z M194.532766,9.44 C194.532766,7.93333333 193.759433,7.18 192.212766,7.18 C191.866099,7.18 191.519433,7.2 191.172766,7.24 L188.972766,12.86 C188.812766,13.2733333 188.732766,13.5133333 188.732766,13.58 C188.732766,13.7666667 188.839433,13.86 189.052766,13.86 C190.466099,13.86 191.559433,13.64 192.332766,13.2 C193.799433,12.36 194.532766,11.1066667 194.532766,9.44 Z" id="Shape"></path>
                <path d="M200.198298,13.16 C200.198298,13.4933333 200.094965,13.7633333 199.888298,13.97 C199.681631,14.1766667 199.411631,14.28 199.078298,14.28 C198.424965,14.28 198.098298,13.9666667 198.098298,13.34 C198.098298,13.0066667 198.208298,12.73 198.428298,12.51 C198.648298,12.29 198.924965,12.18 199.258298,12.18 C199.884965,12.18 200.198298,12.5066667 200.198298,13.16 Z" id="Path"></path>
                <path d="M214.04383,0.2 C214.04383,0.32 213.920496,0.613333333 213.67383,1.08 C213.427163,1.54666667 213.20383,2.26666667 213.00383,3.24 C212.950496,3.46666667 212.86383,3.58 212.74383,3.58 C212.650496,3.58 212.60383,3.53333333 212.60383,3.44 L212.60383,3.32 C212.64383,3.04 212.66383,2.79333333 212.66383,2.58 C212.66383,1.92666667 212.447163,1.40666667 212.01383,1.02 C211.580496,0.633333333 210.997163,0.44 210.26383,0.44 C209.450496,0.44 208.767163,0.68 208.21383,1.16 C207.660496,1.64 207.38383,2.23333333 207.38383,2.94 C207.38383,3.68666667 207.857163,4.53333333 208.80383,5.48 L210.00383,6.68 C211.070496,7.74666667 211.60383,8.82 211.60383,9.9 C211.60383,11.14 211.127163,12.2 210.17383,13.08 C209.220496,13.96 208.06383,14.4 206.70383,14.4 C205.917163,14.4 205.257163,14.2533333 204.72383,13.96 C204.657163,13.92 204.36383,13.7066667 203.84383,13.32 C203.697163,13.2133333 203.550496,13.16 203.40383,13.16 C203.097163,13.16 202.84383,13.4866667 202.64383,14.14 C202.590496,14.3266667 202.517163,14.42 202.42383,14.42 C202.30383,14.42 202.24383,14.3533333 202.24383,14.22 C202.24383,14.2066667 202.30383,14.0533333 202.42383,13.76 C202.86383,12.68 203.257163,11.62 203.60383,10.58 C203.710496,10.26 203.84383,10.1 204.00383,10.1 C204.097163,10.1 204.14383,10.1466667 204.14383,10.24 C204.14383,10.2666667 204.117163,10.3466667 204.06383,10.48 C203.970496,10.6266667 203.92383,10.96 203.92383,11.48 C203.92383,13.16 204.857163,14 206.72383,14 C207.670496,14 208.440496,13.7266667 209.03383,13.18 C209.627163,12.6333333 209.92383,11.92 209.92383,11.04 C209.92383,10.0266667 209.46383,9.09333333 208.54383,8.24 L207.42383,7.2 C206.290496,6.14666667 205.72383,5.10666667 205.72383,4.08 C205.72383,3 206.16383,2.06666667 207.04383,1.28 C207.92383,0.493333333 208.970496,0.1 210.18383,0.1 C210.850496,0.1 211.517163,0.24 212.18383,0.52 C212.597163,0.693333333 212.86383,0.78 212.98383,0.78 C213.237163,0.78 213.477163,0.606666667 213.70383,0.26 C213.78383,0.126666667 213.857163,0.06 213.92383,0.06 C214.00383,0.06 214.04383,0.106666667 214.04383,0.2 Z" id="Path"></path>
                <path d="M214.889362,13.16 C214.889362,13.4933333 214.786028,13.7633333 214.579362,13.97 C214.372695,14.1766667 214.102695,14.28 213.769362,14.28 C213.116028,14.28 212.789362,13.9666667 212.789362,13.34 C212.789362,13.0066667 212.899362,12.73 213.119362,12.51 C213.339362,12.29 213.616028,12.18 213.949362,12.18 C214.576028,12.18 214.889362,12.5066667 214.889362,13.16 Z" id="Path"></path>
                <path d="M235.460426,1.14 C235.460426,1.31333333 235.360426,1.59333333 235.160426,1.98 C234.547092,3.16666667 234.180426,4 234.060426,4.48 C234.007092,4.69333333 233.927092,4.8 233.820426,4.8 C233.713759,4.8 233.660426,4.73333333 233.660426,4.6 C233.660426,4.56 233.707092,4.39333333 233.800426,4.1 C233.880426,3.84666667 233.920426,3.52 233.920426,3.12 C233.920426,2.29333333 233.707092,1.64 233.280426,1.16 C232.853759,0.68 232.273759,0.44 231.540426,0.44 C229.807092,0.44 228.347092,1.38 227.160426,3.26 C225.853759,5.32666667 225.200426,7.52 225.200426,9.84 C225.200426,12.2933333 226.093759,13.52 227.880426,13.52 C228.520426,13.52 229.120426,13.36 229.680426,13.04 C230.693759,12.4533333 231.427092,11.76 231.880426,10.96 C232.053759,10.6533333 232.200426,10.5 232.320426,10.5 C232.400426,10.5 232.440426,10.5533333 232.440426,10.66 C232.440426,10.9666667 232.067092,11.52 231.320426,12.32 C230.013759,13.7066667 228.513759,14.4 226.820426,14.4 C225.633759,14.4 224.703759,14.0233333 224.030426,13.27 C223.357092,12.5166667 223.020426,11.4733333 223.020426,10.14 C223.020426,7.63333333 223.917092,5.32666667 225.710426,3.22 C227.503759,1.11333333 229.467092,0.06 231.600426,0.06 C232.187092,0.06 232.680426,0.16 233.080426,0.36 C233.360426,0.506666667 233.773759,0.813333333 234.320426,1.28 C234.453759,1.4 234.587092,1.46 234.720426,1.46 C234.880426,1.46 235.033759,1.33333333 235.180426,1.08 C235.233759,1.02666667 235.287092,1 235.340426,1 C235.420426,1 235.460426,1.04666667 235.460426,1.14 Z" id="Path"></path>
                <path d="M242.425957,8.76 C242.425957,10.32 241.712624,11.7266667 240.285957,12.98 C239.165957,13.9666667 237.999291,14.46 236.785957,14.46 C235.959291,14.46 235.279291,14.1733333 234.745957,13.6 C234.212624,13.0266667 233.945957,12.2866667 233.945957,11.38 C233.945957,10.6066667 234.165957,9.81333333 234.605957,9 C235.045957,8.18666667 235.632624,7.49333333 236.365957,6.92 C237.512624,6.02666667 238.619291,5.58 239.685957,5.58 C240.499291,5.58 241.159291,5.87333333 241.665957,6.46 C242.172624,7.04666667 242.425957,7.81333333 242.425957,8.76 Z M240.885957,7.46 C240.885957,6.44666667 240.432624,5.94 239.525957,5.94 C238.419291,5.94 237.459291,6.73333333 236.645957,8.32 C235.872624,9.84 235.485957,11.2666667 235.485957,12.6 C235.485957,13.6 235.932624,14.1 236.825957,14.1 C237.945957,14.1 238.879291,13.38 239.625957,11.94 C240.465957,10.3133333 240.885957,8.82 240.885957,7.46 Z" id="Shape"></path>
                <path d="M256.511489,7.06 C256.511489,7.42 256.344823,7.98 256.011489,8.74 L254.531489,12.1 C254.291489,12.6466667 254.171489,13.04 254.171489,13.28 C254.171489,13.5466667 254.324823,13.68 254.631489,13.68 C255.098156,13.68 255.551489,13.4333333 255.991489,12.94 C256.151489,12.7666667 256.278156,12.68 256.371489,12.68 C256.451489,12.68 256.491489,12.7066667 256.491489,12.76 C256.491489,12.92 256.264823,13.16 255.811489,13.48 C255.144823,13.96 254.531489,14.2 253.971489,14.2 C253.598156,14.2 253.294823,14.1033333 253.061489,13.91 C252.828156,13.7166667 252.711489,13.4666667 252.711489,13.16 C252.711489,12.8266667 252.858156,12.32 253.151489,11.64 L254.611489,8.26 C254.958156,7.46 255.131489,6.94 255.131489,6.7 C255.131489,6.23333333 254.931489,6 254.531489,6 C253.904823,6 253.231489,6.44666667 252.511489,7.34 C252.044823,7.91333333 251.451489,9.04666667 250.731489,10.74 L249.531489,13.56 C249.344823,14 249.204823,14.22 249.111489,14.22 C249.044823,14.22 248.991489,14.2133333 248.951489,14.2 C248.751489,14.1733333 248.578156,14.16 248.431489,14.16 C248.351489,14.16 248.241489,14.17 248.101489,14.19 C247.961489,14.21 247.858156,14.22 247.791489,14.22 C247.698156,14.22 247.651489,14.1866667 247.651489,14.12 C247.651489,14.08 247.678156,14.0066667 247.731489,13.9 C247.784823,13.7933333 247.858156,13.64 247.951489,13.44 L250.031489,8.5 C250.471489,7.46 250.691489,6.78 250.691489,6.46 C250.691489,6.08666667 250.491489,5.9 250.091489,5.9 C249.571489,5.9 248.931489,6.33333333 248.171489,7.2 C247.944823,7.46666667 247.591489,7.93333333 247.111489,8.6 C246.938156,8.84 246.691489,9.34 246.371489,10.1 L244.871489,13.62 C244.711489,13.9933333 244.591489,14.18 244.511489,14.18 C244.444823,14.18 244.391489,14.1733333 244.351489,14.16 C244.138156,14.1333333 244.011489,14.12 243.971489,14.12 C243.558156,14.12 243.311489,14.14 243.231489,14.18 C243.204823,14.1933333 243.164823,14.2 243.111489,14.2 C243.044823,14.2 243.011489,14.1666667 243.011489,14.1 C243.078156,13.9533333 243.158156,13.7933333 243.251489,13.62 L246.411489,6.28 C246.451489,6.21333333 246.471489,6.16666667 246.471489,6.14 C246.471489,6.02 246.351489,5.96 246.111489,5.96 C245.738156,5.96 245.551489,5.89333333 245.551489,5.76 C245.551489,5.66666667 245.618156,5.62 245.751489,5.62 C245.871489,5.62 246.058156,5.63333333 246.311489,5.66 C246.564823,5.68666667 246.751489,5.7 246.871489,5.7 C247.471489,5.7 247.851489,5.65333333 248.011489,5.56 C248.051489,5.54666667 248.091489,5.53333333 248.131489,5.52 C248.211489,5.52 248.251489,5.56666667 248.251489,5.66 C248.251489,5.68666667 248.191489,5.83333333 248.071489,6.1 C247.978156,6.28666667 247.851489,6.61333333 247.691489,7.08 L247.591489,7.36 C247.711489,7.22666667 247.964823,6.94666667 248.351489,6.52 C248.951489,5.84 249.684823,5.5 250.551489,5.5 C251.098156,5.5 251.484823,5.64 251.711489,5.92 C251.938156,6.2 252.064823,6.69333333 252.091489,7.4 C252.944823,6.14666667 253.864823,5.52 254.851489,5.52 C255.358156,5.52 255.761489,5.66 256.061489,5.94 C256.361489,6.22 256.511489,6.59333333 256.511489,7.06 Z" id="Path"></path>
                <path d="M267.097021,7.86 C267.097021,9.40666667 266.463688,10.8766667 265.197021,12.27 C263.930355,13.6633333 262.590355,14.36 261.177021,14.36 C260.270355,14.36 259.657021,13.9533333 259.337021,13.14 L257.657021,17.28 C257.550355,17.5333333 257.477021,17.74 257.437021,17.9 C257.317021,18.2333333 257.183688,18.5266667 257.037021,18.78 C258.010355,18.82 258.497021,18.8866667 258.497021,18.98 C258.497021,19.0866667 258.330355,19.14 257.997021,19.14 C257.703688,19.14 257.343688,19.1266667 256.917021,19.1 L256.317021,19.06 C256.330355,19.06 256.210355,19.0666667 255.957021,19.08 C255.663688,19.0933333 255.377021,19.1066667 255.097021,19.12 L254.297021,19.14 C254.017021,19.1533333 253.877021,19.1 253.877021,18.98 C253.877021,18.8466667 254.063688,18.7733333 254.437021,18.76 C254.930355,18.7333333 255.237021,18.6733333 255.357021,18.58 C255.477021,18.4866667 255.650355,18.1733333 255.877021,17.64 L260.357021,6.88 C260.583688,6.33333333 260.697021,6.04666667 260.697021,6.02 C260.697021,5.91333333 260.617021,5.86 260.457021,5.86 L260.257021,5.86 C260.190355,5.87333333 260.083688,5.88 259.937021,5.88 C259.697021,5.88 259.577021,5.82666667 259.577021,5.72 C259.577021,5.62666667 259.657021,5.58 259.817021,5.58 L260.137021,5.58 C261.203688,5.58 261.897021,5.54 262.217021,5.46 C262.323688,5.43333333 262.390355,5.42 262.417021,5.42 C262.497021,5.42 262.537021,5.46 262.537021,5.54 C262.537021,5.62 262.350355,6.07333333 261.977021,6.9 C262.590355,6.35333333 263.080355,5.98333333 263.447021,5.79 C263.813688,5.59666667 264.217021,5.5 264.657021,5.5 C265.363688,5.5 265.947021,5.72 266.407021,6.16 C266.867021,6.6 267.097021,7.16666667 267.097021,7.86 Z M265.397021,7.16 C265.397021,6.37333333 265.043688,5.98 264.337021,5.98 C263.643688,5.98 262.937021,6.39333333 262.217021,7.22 C261.657021,7.86 261.103688,8.86666667 260.557021,10.24 L259.897021,11.88 C259.750355,12.24 259.677021,12.5066667 259.677021,12.68 C259.677021,13.0266667 259.810355,13.3266667 260.077021,13.58 C260.343688,13.8333333 260.663688,13.96 261.037021,13.96 C262.117021,13.96 263.143688,13.0533333 264.117021,11.24 C264.970355,9.65333333 265.397021,8.29333333 265.397021,7.16 Z" id="Shape"></path>
                <path d="M277.582553,5.78 C277.582553,5.78 277.56922,5.81333333 277.542553,5.88 L277.402553,6.2 L275.162553,11.42 C274.70922,12.4733333 274.482553,13.1266667 274.482553,13.38 C274.482553,13.74 274.655887,13.92 275.002553,13.92 C275.495887,13.92 276.042553,13.5733333 276.642553,12.88 C276.78922,12.7066667 276.88922,12.62 276.942553,12.62 C277.022553,12.62 277.062553,12.66 277.062553,12.74 C277.062553,13.06 276.66922,13.46 275.882553,13.94 C275.415887,14.22 274.935887,14.36 274.442553,14.36 C274.055887,14.36 273.715887,14.2533333 273.422553,14.04 C273.12922,13.8266667 272.982553,13.58 272.982553,13.3 C272.982553,13.14 273.042553,12.8933333 273.162553,12.56 L273.402553,11.88 C272.50922,12.9066667 271.832553,13.5733333 271.372553,13.88 C270.912553,14.1866667 270.34922,14.34 269.682553,14.34 C269.162553,14.34 268.735887,14.2366667 268.402553,14.03 C268.06922,13.8233333 267.902553,13.5533333 267.902553,13.22 C267.902553,12.86 268.04922,12.3533333 268.342553,11.7 L270.402553,7.08 C270.455887,6.96 270.56922,6.72666667 270.742553,6.38 C270.782553,6.31333333 270.802553,6.26666667 270.802553,6.24 C270.802553,6.13333333 270.642553,6.08 270.322553,6.08 C269.895887,6.08 269.682553,6.00666667 269.682553,5.86 C269.682553,5.76666667 269.72922,5.72 269.822553,5.72 C269.92922,5.72 270.082553,5.73333333 270.282553,5.76 C270.482553,5.78666667 270.635887,5.8 270.742553,5.8 C271.435887,5.8 271.94922,5.74 272.282553,5.62 C272.362553,5.59333333 272.415887,5.58 272.442553,5.58 C272.50922,5.58 272.542553,5.62 272.542553,5.7 C272.542553,5.80666667 272.40922,6.14333333 272.142553,6.71 C271.875887,7.27666667 271.62922,7.86 271.402553,8.46 C271.34922,8.60666667 271.142553,9.09333333 270.782553,9.92 L269.982553,11.76 C269.64922,12.52 269.482553,13.06 269.482553,13.38 C269.482553,13.7666667 269.72922,13.96 270.222553,13.96 C270.742553,13.96 271.415887,13.5333333 272.242553,12.68 C273.175887,11.72 273.94922,10.5066667 274.562553,9.04 L275.842553,6 C275.90922,5.84 275.982553,5.76 276.062553,5.76 C276.04922,5.76 276.18922,5.77333333 276.482553,5.8 L276.642553,5.8 C277.002553,5.8 277.235887,5.78 277.342553,5.74 C277.40922,5.71333333 277.455887,5.7 277.482553,5.7 C277.54922,5.7 277.582553,5.72666667 277.582553,5.78 Z" id="Path"></path>
                <path d="M284.568085,5.76 C284.568085,5.94666667 284.288085,6.04666667 283.728085,6.06 L282.968085,6.08 L282.608085,6.08 L279.908085,12.14 C279.614752,12.7933333 279.468085,13.2066667 279.468085,13.38 C279.468085,13.66 279.674752,13.8 280.088085,13.8 C280.688085,13.8 281.221418,13.48 281.688085,12.84 C281.794752,12.7066667 281.874752,12.64 281.928085,12.64 C282.034752,12.64 282.088085,12.6866667 282.088085,12.78 C282.088085,12.9533333 281.868085,13.2333333 281.428085,13.62 C280.921418,14.06 280.314752,14.28 279.608085,14.28 C279.128085,14.28 278.738085,14.16 278.438085,13.92 C278.138085,13.68 277.988085,13.3733333 277.988085,13 C277.988085,12.76 278.141418,12.3133333 278.448085,11.66 L281.068085,6.04 L280.248085,6.04 C280.021418,6.04 279.908085,5.99333333 279.908085,5.9 C279.908085,5.72666667 280.001418,5.64 280.188085,5.64 L280.368085,5.64 C280.434752,5.65333333 280.541418,5.66 280.688085,5.66 C280.874752,5.66 281.054752,5.65333333 281.228085,5.64 L281.568085,4.78 C281.688085,4.48666667 281.781418,4.34 281.848085,4.34 C281.914752,4.34 282.018085,4.35333333 282.158085,4.38 C282.298085,4.40666667 282.408085,4.42 282.488085,4.42 C282.634752,4.42 282.848085,4.35333333 283.128085,4.22 C283.181418,4.19333333 283.228085,4.18 283.268085,4.18 C283.334752,4.18 283.368085,4.20666667 283.368085,4.26 C283.368085,4.26 283.294752,4.42 283.148085,4.74 L282.708085,5.7 L283.188085,5.68 L283.948085,5.64 C284.014752,5.64 284.094752,5.63333333 284.188085,5.62 C284.281418,5.60666667 284.334752,5.6 284.348085,5.6 C284.494752,5.6 284.568085,5.65333333 284.568085,5.76 Z" id="Path"></path>
                <path d="M291.633617,6.9 C291.633617,7.62 291.24695,8.21666667 290.473617,8.69 C289.700284,9.16333333 288.720284,9.4 287.533617,9.4 C287.10695,9.4 286.633617,9.36666667 286.113617,9.3 C285.620284,10.3266667 285.373617,11.28 285.373617,12.16 C285.373617,13.3466667 285.900284,13.94 286.953617,13.94 C287.76695,13.94 288.560284,13.5133333 289.333617,12.66 C289.50695,12.4733333 289.620284,12.38 289.673617,12.38 C289.740284,12.38 289.773617,12.4133333 289.773617,12.48 C289.773617,12.7866667 289.460284,13.1666667 288.833617,13.62 C288.113617,14.14 287.36695,14.4 286.593617,14.4 C285.72695,14.4 285.013617,14.1466667 284.453617,13.64 C283.893617,13.1333333 283.613617,12.4933333 283.613617,11.72 C283.613617,10.2266667 284.42695,8.78 286.053617,7.38 C287.480284,6.15333333 288.753617,5.54 289.873617,5.54 C291.04695,5.54 291.633617,5.99333333 291.633617,6.9 Z M290.213617,6.56 C290.213617,6.14666667 290.00695,5.94 289.593617,5.94 C289.16695,5.94 288.74695,6.1 288.333617,6.42 C287.58695,7.00666667 286.900284,7.88 286.273617,9.04 C286.433617,9.05333333 286.613617,9.06 286.813617,9.06 C287.560284,9.06 288.28695,8.83333333 288.993617,8.38 C289.80695,7.87333333 290.213617,7.26666667 290.213617,6.56 Z" id="Shape"></path>
                <path d="M299.459149,6.46 C299.459149,6.72666667 299.372482,6.95666667 299.199149,7.15 C299.025816,7.34333333 298.825816,7.44 298.599149,7.44 C298.385816,7.44 298.279149,7.36666667 298.279149,7.22 C298.279149,7.22 298.292482,7.15333333 298.319149,7.02 C298.345816,6.94 298.359149,6.86666667 298.359149,6.8 C298.359149,6.48 298.199149,6.32 297.879149,6.32 C297.492482,6.32 296.952482,6.69333333 296.259149,7.44 C295.565816,8.18666667 294.912482,9.23333333 294.299149,10.58 L292.859149,13.74 C292.725816,14.0466667 292.612482,14.2 292.519149,14.2 C292.252482,14.16 292.045816,14.14 291.899149,14.14 C291.672482,14.14 291.492482,14.1533333 291.359149,14.18 L291.239149,14.18 C291.119149,14.18 291.059149,14.1533333 291.059149,14.1 C291.059149,14.0866667 291.079149,14.06 291.119149,14.02 L291.219149,13.82 L294.599149,6.14 C294.599149,6.03333333 294.512482,5.98 294.339149,5.98 C294.352482,5.98 294.325816,5.98 294.259149,5.98 C294.205816,5.99333333 294.119149,6 293.999149,6 L293.799149,6 C293.599149,6 293.499149,5.95333333 293.499149,5.86 C293.499149,5.78 293.845816,5.72666667 294.539149,5.7 C295.232482,5.67333333 295.699149,5.61333333 295.939149,5.52 C296.045816,5.49333333 296.105816,5.48 296.119149,5.48 C296.199149,5.48 296.239149,5.52 296.239149,5.6 C296.239149,5.66666667 296.152482,5.91333333 295.979149,6.34 L295.239149,8.14 C296.465816,6.43333333 297.545816,5.58 298.479149,5.58 C299.132482,5.58 299.459149,5.87333333 299.459149,6.46 Z" id="Path"></path>
                <path d="M313.850213,0.2 C313.850213,0.32 313.726879,0.613333333 313.480213,1.08 C313.233546,1.54666667 313.010213,2.26666667 312.810213,3.24 C312.756879,3.46666667 312.670213,3.58 312.550213,3.58 C312.456879,3.58 312.410213,3.53333333 312.410213,3.44 L312.410213,3.32 C312.450213,3.04 312.470213,2.79333333 312.470213,2.58 C312.470213,1.92666667 312.253546,1.40666667 311.820213,1.02 C311.386879,0.633333333 310.803546,0.44 310.070213,0.44 C309.256879,0.44 308.573546,0.68 308.020213,1.16 C307.466879,1.64 307.190213,2.23333333 307.190213,2.94 C307.190213,3.68666667 307.663546,4.53333333 308.610213,5.48 L309.810213,6.68 C310.876879,7.74666667 311.410213,8.82 311.410213,9.9 C311.410213,11.14 310.933546,12.2 309.980213,13.08 C309.026879,13.96 307.870213,14.4 306.510213,14.4 C305.723546,14.4 305.063546,14.2533333 304.530213,13.96 C304.463546,13.92 304.170213,13.7066667 303.650213,13.32 C303.503546,13.2133333 303.356879,13.16 303.210213,13.16 C302.903546,13.16 302.650213,13.4866667 302.450213,14.14 C302.396879,14.3266667 302.323546,14.42 302.230213,14.42 C302.110213,14.42 302.050213,14.3533333 302.050213,14.22 C302.050213,14.2066667 302.110213,14.0533333 302.230213,13.76 C302.670213,12.68 303.063546,11.62 303.410213,10.58 C303.516879,10.26 303.650213,10.1 303.810213,10.1 C303.903546,10.1 303.950213,10.1466667 303.950213,10.24 C303.950213,10.2666667 303.923546,10.3466667 303.870213,10.48 C303.776879,10.6266667 303.730213,10.96 303.730213,11.48 C303.730213,13.16 304.663546,14 306.530213,14 C307.476879,14 308.246879,13.7266667 308.840213,13.18 C309.433546,12.6333333 309.730213,11.92 309.730213,11.04 C309.730213,10.0266667 309.270213,9.09333333 308.350213,8.24 L307.230213,7.2 C306.096879,6.14666667 305.530213,5.10666667 305.530213,4.08 C305.530213,3 305.970213,2.06666667 306.850213,1.28 C307.730213,0.493333333 308.776879,0.1 309.990213,0.1 C310.656879,0.1 311.323546,0.24 311.990213,0.52 C312.403546,0.693333333 312.670213,0.78 312.790213,0.78 C313.043546,0.78 313.283546,0.606666667 313.510213,0.26 C313.590213,0.126666667 313.663546,0.06 313.730213,0.06 C313.810213,0.06 313.850213,0.106666667 313.850213,0.2 Z" id="Path"></path>
                <path d="M320.495745,7.02 C320.495745,7.67333333 320.222411,8 319.675745,8 C319.489078,8 319.322411,7.93 319.175745,7.79 C319.029078,7.65 318.955745,7.49333333 318.955745,7.32 C318.955745,7 319.135745,6.84 319.495745,6.84 L319.655745,6.86 C319.749078,6.9 319.829078,6.92666667 319.895745,6.94 C320.002411,6.94 320.055745,6.86666667 320.055745,6.72 C320.055745,6.50666667 319.925745,6.31666667 319.665745,6.15 C319.405745,5.98333333 319.115745,5.9 318.795745,5.9 C317.809078,5.9 316.855745,6.63333333 315.935745,8.1 C314.989078,9.60666667 314.515745,11.0133333 314.515745,12.32 C314.515745,13.44 315.022411,14 316.035745,14 C316.795745,14 317.562411,13.54 318.335745,12.62 C318.469078,12.46 318.575745,12.38 318.655745,12.38 C318.722411,12.38 318.755745,12.42 318.755745,12.5 C318.755745,12.66 318.582411,12.9133333 318.235745,13.26 C317.475745,14.02 316.622411,14.4 315.675745,14.4 C314.809078,14.4 314.112411,14.15 313.585745,13.65 C313.059078,13.15 312.795745,12.4866667 312.795745,11.66 C312.795745,10.26 313.542411,8.82666667 315.035745,7.36 C316.262411,6.14666667 317.529078,5.54 318.835745,5.54 C319.329078,5.54 319.729078,5.67666667 320.035745,5.95 C320.342411,6.22333333 320.495745,6.58 320.495745,7.02 Z" id="Path"></path>
                <path d="M326.521277,1.92 C326.521277,2.48 326.261277,2.76 325.741277,2.76 C325.47461,2.76 325.25461,2.67666667 325.081277,2.51 C324.907943,2.34333333 324.821277,2.13333333 324.821277,1.88 C324.821277,1.33333333 325.127943,1.06 325.741277,1.06 C326.261277,1.06 326.521277,1.34666667 326.521277,1.92 Z M325.141277,5.66 C325.141277,5.7 325.107943,5.78 325.041277,5.9 C324.947943,6.06 324.79461,6.38666667 324.581277,6.88 L322.281277,12.14 C321.97461,12.8466667 321.821277,13.2866667 321.821277,13.46 C321.821277,13.82 322.007943,14 322.381277,14 C322.63461,14 322.92461,13.91 323.251277,13.73 C323.577943,13.55 323.827943,13.3333333 324.001277,13.08 C324.121277,12.92 324.21461,12.84 324.281277,12.84 C324.361277,12.84 324.401277,12.88 324.401277,12.96 C324.401277,13.12 324.21461,13.36 323.841277,13.68 C323.281277,14.16 322.647943,14.4 321.941277,14.4 C321.47461,14.4 321.091277,14.28 320.791277,14.04 C320.491277,13.8 320.341277,13.4933333 320.341277,13.12 C320.341277,12.7866667 320.507943,12.2466667 320.841277,11.5 L322.921277,6.86 C322.987943,6.63333333 323.067943,6.46 323.161277,6.34 C323.201277,6.28666667 323.221277,6.24 323.221277,6.2 C323.221277,6.08 322.927943,6 322.341277,5.96 C322.23461,5.93333333 322.181277,5.88666667 322.181277,5.82 C322.181277,5.7 322.23461,5.64 322.341277,5.64 C322.35461,5.64 322.45461,5.65333333 322.641277,5.68 C322.827943,5.70666667 323.127943,5.72 323.541277,5.72 C324.101277,5.72 324.49461,5.67333333 324.721277,5.58 C324.85461,5.52666667 324.947943,5.5 325.001277,5.5 C325.09461,5.5 325.141277,5.55333333 325.141277,5.66 Z" id="Shape"></path>
                <path d="M333.546809,6.9 C333.546809,7.62 333.160142,8.21666667 332.386809,8.69 C331.613475,9.16333333 330.633475,9.4 329.446809,9.4 C329.020142,9.4 328.546809,9.36666667 328.026809,9.3 C327.533475,10.3266667 327.286809,11.28 327.286809,12.16 C327.286809,13.3466667 327.813475,13.94 328.866809,13.94 C329.680142,13.94 330.473475,13.5133333 331.246809,12.66 C331.420142,12.4733333 331.533475,12.38 331.586809,12.38 C331.653475,12.38 331.686809,12.4133333 331.686809,12.48 C331.686809,12.7866667 331.373475,13.1666667 330.746809,13.62 C330.026809,14.14 329.280142,14.4 328.506809,14.4 C327.640142,14.4 326.926809,14.1466667 326.366809,13.64 C325.806809,13.1333333 325.526809,12.4933333 325.526809,11.72 C325.526809,10.2266667 326.340142,8.78 327.966809,7.38 C329.393475,6.15333333 330.666809,5.54 331.786809,5.54 C332.960142,5.54 333.546809,5.99333333 333.546809,6.9 Z M332.126809,6.56 C332.126809,6.14666667 331.920142,5.94 331.506809,5.94 C331.080142,5.94 330.660142,6.1 330.246809,6.42 C329.500142,7.00666667 328.813475,7.88 328.186809,9.04 C328.346809,9.05333333 328.526809,9.06 328.726809,9.06 C329.473475,9.06 330.200142,8.83333333 330.906809,8.38 C331.720142,7.87333333 332.126809,7.26666667 332.126809,6.56 Z" id="Shape"></path>
                <path d="M342.55234,7.12 C342.55234,7.44 342.379007,7.99333333 342.03234,8.78 L340.41234,12.44 C340.225674,12.8666667 340.13234,13.1533333 340.13234,13.3 C340.13234,13.58 340.285674,13.72 340.59234,13.72 C340.965674,13.72 341.51234,13.4133333 342.23234,12.8 C342.299007,12.76 342.35234,12.74 342.39234,12.74 C342.47234,12.74 342.51234,12.7733333 342.51234,12.84 C342.51234,13 342.29234,13.2333333 341.85234,13.54 C341.25234,13.9533333 340.61234,14.16 339.93234,14.16 C339.519007,14.16 339.179007,14.07 338.91234,13.89 C338.645674,13.71 338.51234,13.48 338.51234,13.2 C338.51234,12.9733333 338.639007,12.5733333 338.89234,12 L340.49234,8.42 C340.879007,7.55333333 341.07234,6.96666667 341.07234,6.66 C341.07234,6.20666667 340.839007,5.98 340.37234,5.98 C339.759007,5.98 339.039007,6.42 338.21234,7.3 C337.585674,7.96666667 337.01234,8.9 336.49234,10.1 L334.85234,13.9 C334.785674,14.1 334.699007,14.2 334.59234,14.2 C334.565674,14.2 334.419007,14.1866667 334.15234,14.16 C334.11234,14.1466667 334.03234,14.14 333.91234,14.14 C333.805674,14.14 333.625674,14.1533333 333.37234,14.18 C333.33234,14.1933333 333.285674,14.2 333.23234,14.2 C333.139007,14.2 333.09234,14.1666667 333.09234,14.1 C333.09234,14.0733333 333.11234,14.0333333 333.15234,13.98 L333.29234,13.68 L336.35234,6.32 C336.39234,6.25333333 336.425674,6.19333333 336.45234,6.14 C336.439007,6.04666667 336.27234,5.99333333 335.95234,5.98 C335.55234,5.96666667 335.35234,5.89333333 335.35234,5.76 C335.35234,5.66666667 335.425674,5.62 335.57234,5.62 C335.665674,5.62 335.81234,5.63333333 336.01234,5.66 C336.21234,5.68666667 336.365674,5.7 336.47234,5.7 C337.19234,5.7 337.665674,5.64666667 337.89234,5.54 C337.985674,5.5 338.045674,5.48 338.07234,5.48 C338.15234,5.48 338.19234,5.52 338.19234,5.6 C338.19234,5.64 338.185674,5.67333333 338.17234,5.7 L337.43234,7.58 C337.539007,7.46 337.69234,7.29333333 337.89234,7.08 C338.879007,6.04 339.83234,5.52 340.75234,5.52 C341.285674,5.52 341.719007,5.67 342.05234,5.97 C342.385674,6.27 342.55234,6.65333333 342.55234,7.12 Z" id="Path"></path>
                <path d="M351.557872,7.02 C351.557872,7.67333333 351.284539,8 350.737872,8 C350.551206,8 350.384539,7.93 350.237872,7.79 C350.091206,7.65 350.017872,7.49333333 350.017872,7.32 C350.017872,7 350.197872,6.84 350.557872,6.84 L350.717872,6.86 C350.811206,6.9 350.891206,6.92666667 350.957872,6.94 C351.064539,6.94 351.117872,6.86666667 351.117872,6.72 C351.117872,6.50666667 350.987872,6.31666667 350.727872,6.15 C350.467872,5.98333333 350.177872,5.9 349.857872,5.9 C348.871206,5.9 347.917872,6.63333333 346.997872,8.1 C346.051206,9.60666667 345.577872,11.0133333 345.577872,12.32 C345.577872,13.44 346.084539,14 347.097872,14 C347.857872,14 348.624539,13.54 349.397872,12.62 C349.531206,12.46 349.637872,12.38 349.717872,12.38 C349.784539,12.38 349.817872,12.42 349.817872,12.5 C349.817872,12.66 349.644539,12.9133333 349.297872,13.26 C348.537872,14.02 347.684539,14.4 346.737872,14.4 C345.871206,14.4 345.174539,14.15 344.647872,13.65 C344.121206,13.15 343.857872,12.4866667 343.857872,11.66 C343.857872,10.26 344.604539,8.82666667 346.097872,7.36 C347.324539,6.14666667 348.591206,5.54 349.897872,5.54 C350.391206,5.54 350.791206,5.67666667 351.097872,5.95 C351.404539,6.22333333 351.557872,6.58 351.557872,7.02 Z" id="Path"></path>
                <path d="M359.383404,6.9 C359.383404,7.62 358.996738,8.21666667 358.223404,8.69 C357.450071,9.16333333 356.470071,9.4 355.283404,9.4 C354.856738,9.4 354.383404,9.36666667 353.863404,9.3 C353.370071,10.3266667 353.123404,11.28 353.123404,12.16 C353.123404,13.3466667 353.650071,13.94 354.703404,13.94 C355.516738,13.94 356.310071,13.5133333 357.083404,12.66 C357.256738,12.4733333 357.370071,12.38 357.423404,12.38 C357.490071,12.38 357.523404,12.4133333 357.523404,12.48 C357.523404,12.7866667 357.210071,13.1666667 356.583404,13.62 C355.863404,14.14 355.116738,14.4 354.343404,14.4 C353.476738,14.4 352.763404,14.1466667 352.203404,13.64 C351.643404,13.1333333 351.363404,12.4933333 351.363404,11.72 C351.363404,10.2266667 352.176738,8.78 353.803404,7.38 C355.230071,6.15333333 356.503404,5.54 357.623404,5.54 C358.796738,5.54 359.383404,5.99333333 359.383404,6.9 Z M357.963404,6.56 C357.963404,6.14666667 357.756738,5.94 357.343404,5.94 C356.916738,5.94 356.496738,6.1 356.083404,6.42 C355.336738,7.00666667 354.650071,7.88 354.023404,9.04 C354.183404,9.05333333 354.363404,9.06 354.563404,9.06 C355.310071,9.06 356.036738,8.83333333 356.743404,8.38 C357.556738,7.87333333 357.963404,7.26666667 357.963404,6.56 Z" id="Shape"></path>
            </g>
        </g>
    </g>
</svg>